<?xml version="1.0" standalone="no"?>
<svg width="567.429" height="387.116" viewBox="0 0 567.429 387.116" xmlns="http://www.w3.org/2000/svg" shape-rendering="crispEdges">
<title>
../Results/Eff_padding.svg
</title>
<desc>
Creator: ROOT Version 6.18/04
CreationDate: Wed Jun 28 18:09:41 2023</desc>
<defs>
</defs>
<rect x="0.5" y="0" width="566.929" height="386.616" fill="white"/>
<rect x="57.1929" y="38.6616" width="453.543" height="309.293" fill="white"/>
<rect x="57.1929" y="38.6616" width="453.543" height="309.293" fill="none" stroke="black"/>
<path d="M57.1929,347.955h 453.543" fill="none" stroke="black"/>
<path d="M57.1929,338.676v 9.27879" fill="none" stroke="black"/>
<path d="M73.6854,343.315v 4.6394" fill="none" stroke="black"/>
<path d="M90.1779,343.315v 4.6394" fill="none" stroke="black"/>
<path d="M106.67,343.315v 4.6394" fill="none" stroke="black"/>
<path d="M123.163,343.315v 4.6394" fill="none" stroke="black"/>
<path d="M139.655,338.676v 9.27879" fill="none" stroke="black"/>
<path d="M156.148,343.315v 4.6394" fill="none" stroke="black"/>
<path d="M172.64,343.315v 4.6394" fill="none" stroke="black"/>
<path d="M189.133,343.315v 4.6394" fill="none" stroke="black"/>
<path d="M205.625,343.315v 4.6394" fill="none" stroke="black"/>
<path d="M222.118,338.676v 9.27879" fill="none" stroke="black"/>
<path d="M238.61,343.315v 4.6394" fill="none" stroke="black"/>
<path d="M255.103,343.315v 4.6394" fill="none" stroke="black"/>
<path d="M271.595,343.315v 4.6394" fill="none" stroke="black"/>
<path d="M288.088,343.315v 4.6394" fill="none" stroke="black"/>
<path d="M304.58,338.676v 9.27879" fill="none" stroke="black"/>
<path d="M321.073,343.315v 4.6394" fill="none" stroke="black"/>
<path d="M337.565,343.315v 4.6394" fill="none" stroke="black"/>
<path d="M354.058,343.315v 4.6394" fill="none" stroke="black"/>
<path d="M370.55,343.315v 4.6394" fill="none" stroke="black"/>
<path d="M387.043,338.676v 9.27879" fill="none" stroke="black"/>
<path d="M403.535,343.315v 4.6394" fill="none" stroke="black"/>
<path d="M420.028,343.315v 4.6394" fill="none" stroke="black"/>
<path d="M436.52,343.315v 4.6394" fill="none" stroke="black"/>
<path d="M453.013,343.315v 4.6394" fill="none" stroke="black"/>
<path d="M469.505,338.676v 9.27879" fill="none" stroke="black"/>
<path d="M469.505,338.676v 9.27879" fill="none" stroke="black"/>
<path d="M485.997,343.315v 4.6394" fill="none" stroke="black"/>
<path d="M502.49,343.315v 4.6394" fill="none" stroke="black"/>
<text xml:space="preserve" x="52.482" y="360.625" fill="black" font-size="12.9143" font-family="Helvetica">0</text>
<text xml:space="preserve" x="136.953" y="360.625" fill="black" font-size="12.9143" font-family="Helvetica">1</text>
<text xml:space="preserve" x="217.363" y="360.625" fill="black" font-size="12.9143" font-family="Helvetica">2</text>
<text xml:space="preserve" x="300.209" y="360.625" fill="black" font-size="12.9143" font-family="Helvetica">3</text>
<text xml:space="preserve" x="382.243" y="360.625" fill="black" font-size="12.9143" font-family="Helvetica">4</text>
<text xml:space="preserve" x="465.089" y="360.625" fill="black" font-size="12.9143" font-family="Helvetica">5</text>
<text xml:space="preserve" x="429.352" y="373.621" fill="black" font-size="12.9143" font-family="Helvetica">Padding (mm)</text>
<path d="M57.1929,347.955v -309.293" fill="none" stroke="black"/>
<path d="M70.7992,340.603h -13.6063" fill="none" stroke="black"/>
<path d="M63.9961,332.163h -6.80315" fill="none" stroke="black"/>
<path d="M63.9961,323.723h -6.80315" fill="none" stroke="black"/>
<path d="M63.9961,315.283h -6.80315" fill="none" stroke="black"/>
<path d="M63.9961,306.843h -6.80315" fill="none" stroke="black"/>
<path d="M70.7992,298.403h -13.6063" fill="none" stroke="black"/>
<path d="M63.9961,289.963h -6.80315" fill="none" stroke="black"/>
<path d="M63.9961,281.524h -6.80315" fill="none" stroke="black"/>
<path d="M63.9961,273.084h -6.80315" fill="none" stroke="black"/>
<path d="M63.9961,264.644h -6.80315" fill="none" stroke="black"/>
<path d="M70.7992,256.204h -13.6063" fill="none" stroke="black"/>
<path d="M63.9961,247.764h -6.80315" fill="none" stroke="black"/>
<path d="M63.9961,239.324h -6.80315" fill="none" stroke="black"/>
<path d="M63.9961,230.884h -6.80315" fill="none" stroke="black"/>
<path d="M63.9961,222.444h -6.80315" fill="none" stroke="black"/>
<path d="M70.7992,214.004h -13.6063" fill="none" stroke="black"/>
<path d="M63.9961,205.564h -6.80315" fill="none" stroke="black"/>
<path d="M63.9961,197.124h -6.80315" fill="none" stroke="black"/>
<path d="M63.9961,188.684h -6.80315" fill="none" stroke="black"/>
<path d="M63.9961,180.244h -6.80315" fill="none" stroke="black"/>
<path d="M70.7992,171.805h -13.6063" fill="none" stroke="black"/>
<path d="M63.9961,163.365h -6.80315" fill="none" stroke="black"/>
<path d="M63.9961,154.925h -6.80315" fill="none" stroke="black"/>
<path d="M63.9961,146.485h -6.80315" fill="none" stroke="black"/>
<path d="M63.9961,138.045h -6.80315" fill="none" stroke="black"/>
<path d="M70.7992,129.605h -13.6063" fill="none" stroke="black"/>
<path d="M63.9961,121.165h -6.80315" fill="none" stroke="black"/>
<path d="M63.9961,112.725h -6.80315" fill="none" stroke="black"/>
<path d="M63.9961,104.285h -6.80315" fill="none" stroke="black"/>
<path d="M63.9961,95.8452h -6.80315" fill="none" stroke="black"/>
<path d="M70.7992,87.4053h -13.6063" fill="none" stroke="black"/>
<path d="M63.9961,78.9654h -6.80315" fill="none" stroke="black"/>
<path d="M63.9961,70.5255h -6.80315" fill="none" stroke="black"/>
<path d="M63.9961,62.0856h -6.80315" fill="none" stroke="black"/>
<path d="M63.9961,53.6456h -6.80315" fill="none" stroke="black"/>
<path d="M70.7992,45.2057h -13.6063" fill="none" stroke="black"/>
<path d="M70.7992,340.603h -13.6063" fill="none" stroke="black"/>
<path d="M70.7992,45.2057h -13.6063" fill="none" stroke="black"/>
<text xml:space="preserve" x="28.9277" y="345.193" fill="black" font-size="12.9143" font-family="Helvetica">0.55</text>
<text xml:space="preserve" x="36.2377" y="302.958" fill="black" font-size="12.9143" font-family="Helvetica">0.6</text>
<text xml:space="preserve" x="28.9277" y="260.722" fill="black" font-size="12.9143" font-family="Helvetica">0.65</text>
<text xml:space="preserve" x="36.2377" y="218.487" fill="black" font-size="12.9143" font-family="Helvetica">0.7</text>
<text xml:space="preserve" x="28.9277" y="176.252" fill="black" font-size="12.9143" font-family="Helvetica">0.75</text>
<text xml:space="preserve" x="36.2377" y="134.016" fill="black" font-size="12.9143" font-family="Helvetica">0.8</text>
<text xml:space="preserve" x="28.9277" y="91.7808" fill="black" font-size="12.9143" font-family="Helvetica">0.85</text>
<text xml:space="preserve" x="36.2377" y="49.5454" fill="black" font-size="12.9143" font-family="Helvetica">0.9</text>
<g transform="rotate(-90,15.1199,94.2174)">
<text xml:space="preserve" x="15.1199" y="94.2174" fill="black" font-size="12.9143" font-family="Helvetica">Efficiency</text>
</g>
<text xml:space="preserve" x="98.7785" y="17.8688" fill="black" font-size="16.8995" font-family="Helvetica">System Efficiency Against Padding on Cold Plate</text>
<path d="M57.1929,64.4361l 28.8532, 23.2897l 26.7317, 20.8372l 26.8776, 20.2335l 28.38, 20.6283l 24.5719, 17.2144l 25.0765, 16.8516l 4.43404, 2.89725l 23.4836, 14.8461l 33.3575, 19.974l 25.6213, 14.8725l 32.8004, 18.6626l 31.8456, 17.47l 17.8164,
 9.4353l 31.5019, 16.0781l 31.9855, 15.5732l 18.975, 8.88066" fill="none" stroke="black"/>
<g stroke="black" stroke-width="1" fill="black">
<circle cx="57.1929" cy="64.4361" r="0.129955"/>
<circle cx="139.655" cy="128.796" r="0.129955"/>
<circle cx="222.118" cy="186.388" r="0.129955"/>
<circle cx="304.58" cy="236.08" r="0.129955"/>
<circle cx="387.043" cy="281.648" r="0.129955"/>
<circle cx="469.505" cy="322.18" r="0.129955"/>
</g>
<text xml:space="preserve" x="98.7785" y="17.8688" fill="black" font-size="16.8995" font-family="Helvetica">System Efficiency Against Padding on Cold Plate</text></svg>
