<?xml version="1.0" standalone="no"?>
<svg width="567.429" height="387.116" viewBox="0 0 567.429 387.116" xmlns="http://www.w3.org/2000/svg" shape-rendering="crispEdges">
<title>
../Results/Eff_padding.svg
</title>
<desc>
Creator: ROOT Version 6.18/04
CreationDate: Tue Mar 21 13:22:27 2023</desc>
<defs>
</defs>
<rect x="0.5" y="0" width="566.929" height="386.616" fill="white"/>
<rect x="57.1929" y="38.6616" width="453.543" height="309.293" fill="white"/>
<rect x="57.1929" y="38.6616" width="453.543" height="309.293" fill="none" stroke="black"/>
<path d="M57.1929,347.955h 453.543" fill="none" stroke="black"/>
<path d="M57.1929,338.676v 9.27879" fill="none" stroke="black"/>
<path d="M73.6854,343.315v 4.6394" fill="none" stroke="black"/>
<path d="M90.1779,343.315v 4.6394" fill="none" stroke="black"/>
<path d="M106.67,343.315v 4.6394" fill="none" stroke="black"/>
<path d="M123.163,343.315v 4.6394" fill="none" stroke="black"/>
<path d="M139.655,338.676v 9.27879" fill="none" stroke="black"/>
<path d="M156.148,343.315v 4.6394" fill="none" stroke="black"/>
<path d="M172.64,343.315v 4.6394" fill="none" stroke="black"/>
<path d="M189.133,343.315v 4.6394" fill="none" stroke="black"/>
<path d="M205.625,343.315v 4.6394" fill="none" stroke="black"/>
<path d="M222.118,338.676v 9.27879" fill="none" stroke="black"/>
<path d="M238.61,343.315v 4.6394" fill="none" stroke="black"/>
<path d="M255.103,343.315v 4.6394" fill="none" stroke="black"/>
<path d="M271.595,343.315v 4.6394" fill="none" stroke="black"/>
<path d="M288.088,343.315v 4.6394" fill="none" stroke="black"/>
<path d="M304.58,338.676v 9.27879" fill="none" stroke="black"/>
<path d="M321.073,343.315v 4.6394" fill="none" stroke="black"/>
<path d="M337.565,343.315v 4.6394" fill="none" stroke="black"/>
<path d="M354.058,343.315v 4.6394" fill="none" stroke="black"/>
<path d="M370.55,343.315v 4.6394" fill="none" stroke="black"/>
<path d="M387.043,338.676v 9.27879" fill="none" stroke="black"/>
<path d="M403.535,343.315v 4.6394" fill="none" stroke="black"/>
<path d="M420.028,343.315v 4.6394" fill="none" stroke="black"/>
<path d="M436.52,343.315v 4.6394" fill="none" stroke="black"/>
<path d="M453.013,343.315v 4.6394" fill="none" stroke="black"/>
<path d="M469.505,338.676v 9.27879" fill="none" stroke="black"/>
<path d="M469.505,338.676v 9.27879" fill="none" stroke="black"/>
<path d="M485.997,343.315v 4.6394" fill="none" stroke="black"/>
<path d="M502.49,343.315v 4.6394" fill="none" stroke="black"/>
<text xml:space="preserve" x="52.482" y="360.625" fill="black" font-size="12.9143" font-family="Helvetica">0</text>
<text xml:space="preserve" x="136.953" y="360.625" fill="black" font-size="12.9143" font-family="Helvetica">1</text>
<text xml:space="preserve" x="217.363" y="360.625" fill="black" font-size="12.9143" font-family="Helvetica">2</text>
<text xml:space="preserve" x="300.209" y="360.625" fill="black" font-size="12.9143" font-family="Helvetica">3</text>
<text xml:space="preserve" x="382.243" y="360.625" fill="black" font-size="12.9143" font-family="Helvetica">4</text>
<text xml:space="preserve" x="465.089" y="360.625" fill="black" font-size="12.9143" font-family="Helvetica">5</text>
<text xml:space="preserve" x="429.352" y="373.621" fill="black" font-size="12.9143" font-family="Helvetica">Padding (mm)</text>
<path d="M57.1929,347.955v -309.293" fill="none" stroke="black"/>
<path d="M70.7992,335.089h -13.6063" fill="none" stroke="black"/>
<path d="M63.9961,326.002h -6.80315" fill="none" stroke="black"/>
<path d="M63.9961,316.915h -6.80315" fill="none" stroke="black"/>
<path d="M63.9961,307.829h -6.80315" fill="none" stroke="black"/>
<path d="M63.9961,298.742h -6.80315" fill="none" stroke="black"/>
<path d="M70.7992,289.655h -13.6063" fill="none" stroke="black"/>
<path d="M63.9961,280.569h -6.80315" fill="none" stroke="black"/>
<path d="M63.9961,271.482h -6.80315" fill="none" stroke="black"/>
<path d="M63.9961,262.395h -6.80315" fill="none" stroke="black"/>
<path d="M63.9961,253.308h -6.80315" fill="none" stroke="black"/>
<path d="M70.7992,244.222h -13.6063" fill="none" stroke="black"/>
<path d="M63.9961,235.135h -6.80315" fill="none" stroke="black"/>
<path d="M63.9961,226.048h -6.80315" fill="none" stroke="black"/>
<path d="M63.9961,216.961h -6.80315" fill="none" stroke="black"/>
<path d="M63.9961,207.875h -6.80315" fill="none" stroke="black"/>
<path d="M70.7992,198.788h -13.6063" fill="none" stroke="black"/>
<path d="M63.9961,189.701h -6.80315" fill="none" stroke="black"/>
<path d="M63.9961,180.615h -6.80315" fill="none" stroke="black"/>
<path d="M63.9961,171.528h -6.80315" fill="none" stroke="black"/>
<path d="M63.9961,162.441h -6.80315" fill="none" stroke="black"/>
<path d="M70.7992,153.354h -13.6063" fill="none" stroke="black"/>
<path d="M63.9961,144.268h -6.80315" fill="none" stroke="black"/>
<path d="M63.9961,135.181h -6.80315" fill="none" stroke="black"/>
<path d="M63.9961,126.094h -6.80315" fill="none" stroke="black"/>
<path d="M63.9961,117.007h -6.80315" fill="none" stroke="black"/>
<path d="M70.7992,107.921h -13.6063" fill="none" stroke="black"/>
<path d="M63.9961,98.8339h -6.80315" fill="none" stroke="black"/>
<path d="M63.9961,89.7472h -6.80315" fill="none" stroke="black"/>
<path d="M63.9961,80.6604h -6.80315" fill="none" stroke="black"/>
<path d="M63.9961,71.5737h -6.80315" fill="none" stroke="black"/>
<path d="M70.7992,62.487h -13.6063" fill="none" stroke="black"/>
<path d="M70.7992,335.089h -13.6063" fill="none" stroke="black"/>
<path d="M63.9961,344.176h -6.80315" fill="none" stroke="black"/>
<path d="M70.7992,62.487h -13.6063" fill="none" stroke="black"/>
<path d="M63.9961,53.4002h -6.80315" fill="none" stroke="black"/>
<path d="M63.9961,44.3135h -6.80315" fill="none" stroke="black"/>
<text xml:space="preserve" x="36.2377" y="339.508" fill="black" font-size="12.9143" font-family="Helvetica">0.5</text>
<text xml:space="preserve" x="28.9277" y="294.023" fill="black" font-size="12.9143" font-family="Helvetica">0.55</text>
<text xml:space="preserve" x="36.2377" y="248.539" fill="black" font-size="12.9143" font-family="Helvetica">0.6</text>
<text xml:space="preserve" x="28.9277" y="203.055" fill="black" font-size="12.9143" font-family="Helvetica">0.65</text>
<text xml:space="preserve" x="36.2377" y="157.571" fill="black" font-size="12.9143" font-family="Helvetica">0.7</text>
<text xml:space="preserve" x="28.9277" y="112.086" fill="black" font-size="12.9143" font-family="Helvetica">0.75</text>
<text xml:space="preserve" x="36.2377" y="66.602" fill="black" font-size="12.9143" font-family="Helvetica">0.8</text>
<g transform="rotate(-90,15.1199,94.2174)">
<text xml:space="preserve" x="15.1199" y="94.2174" fill="black" font-size="12.9143" font-family="Helvetica">Efficiency</text>
</g>
<text xml:space="preserve" x="106.901" y="16.2444" fill="black" font-size="10.32" font-family="Helvetica">System Efficiency Against Padding on Cold Plate (HCI unit 15mm from the centre)</text>
<path d="M57.1929,64.4361l 30.703, 24.1832l 30.5454, 23.3116l 21.214, 15.7516l 30.1038, 21.7683l 28.1403, 19.6876l 24.2184, 16.3603l 29.2357, 19.0278l 26.9626, 16.856l 26.2641, 15.7325l 30.0998, 17.1034l 32.8606, 17.6944l 19.502, 10.1553l 31.962,
 16.1217l 32.7602, 15.7698l 17.7402, 8.22091" fill="none" stroke="black"/>
<g stroke="black" stroke-width="1" fill="black">
<circle cx="57.1929" cy="64.4361" r="0.129955"/>
<circle cx="139.655" cy="127.682" r="0.129955"/>
<circle cx="222.118" cy="185.499" r="0.129955"/>
<circle cx="304.58" cy="237.115" r="0.129955"/>
<circle cx="387.043" cy="282.068" r="0.129955"/>
<circle cx="469.505" cy="322.18" r="0.129955"/>
</g>
<text xml:space="preserve" x="106.901" y="16.2444" fill="black" font-size="10.32" font-family="Helvetica">System Efficiency Against Padding on Cold Plate (HCI unit 15mm from the centre)</text></svg>
