<?xml version="1.0" standalone="no"?>
<svg width="567.429" height="387.116" viewBox="0 0 567.429 387.116" xmlns="http://www.w3.org/2000/svg" shape-rendering="crispEdges">
<title>
/home/local1/eclipse-workspace/Dev/Geant4-Development/Results/QValueMk_Oct.svg
</title>
<desc>
Creator: ROOT Version 6.18/04
CreationDate: Tue May 23 14:27:51 2023</desc>
<defs>
</defs>
<rect x="0.5" y="0" width="566.929" height="386.616" fill="white"/>
<rect x="57.1929" y="38.6616" width="453.543" height="309.293" fill="white"/>
<rect x="57.1929" y="38.6616" width="453.543" height="309.293" fill="none" stroke="black"/>
<rect x="57.1929" y="38.6616" width="453.543" height="309.293" fill="white"/>
<rect x="57.1929" y="38.6616" width="453.543" height="309.293" fill="none" stroke="black"/>
<path d="M57.1929,346.303h 0.453543v 1.10118h 0.453543v -0.550589h 0.453543v 1.10118h 0.453543v -0.550589h 0.907087v -0.550589h 0.907087v 0.550589h 0.453543v 0.550589h 0.453543v -2.20235h 0.453543v 1.65177h 0.453543v 0.550589h 1.36063v -0.550589h
 0.453543v -0.550589h 0.453543v -0.550589h 0.453543v 0.550589h 0.453543v 1.10118h 0.453543v -1.10118h 0.453543v 1.10118h 0.907087v -1.10118h 0.907087v 0.550589h 0.453543v -1.10118h 0.453543v 1.65177h 0.453543v -2.20235h 0.453543v 0.550589h 0.453543v
 1.10118h 0.453543v -1.10118h 0.907087v 0.550589h 0.907087v 0.550589h 1.36063v -0.550589h 0.453543v 0.550589h 0.453543v -0.550589h 0.907087v -0.550589h 0.453543v 0.550589h 0.907087v 1.10118h 0.453543v -1.10118h 0.453543v -0.550589h 0.453543v 1.10118h
 0.453543v -1.10118h 0.453543v 0.550589h 0.453543v 1.10118h 0.453543v -2.20235h 0.453543v 1.10118h 0.453543v 1.10118h 0.453543v -0.550589h 0.907087v -1.10118h 0.453543v -0.550589h 0.453543v 0.550589h 0.453543v 0.550589h 0.453543v -0.550589h 0.453543v
 -0.550589h 0.453543v 1.65177h 0.453543v -1.65177h 0.453543v 2.20235h 1.36063v -1.10118h 1.81417v 1.10118h 0.907087v -2.20235h 0.453543v 0.550589h 0.453543v 1.10118h 0.453543v -1.10118h 0.453543v 1.65177h 0.453543v -0.550589h 0.453543v -1.10118h
 0.453543v 1.65177h 0.453543v -3.85412h 0.453543v 3.30353h 0.453543v -0.550589h 0.453543v 0.550589h 0.453543v -1.65177h 0.453543v 1.65177h 0.453543v -3.85412h 0.453543v 3.30353h 0.453543v 0.550589h 0.453543v -0.550589h 0.453543v -1.10118h 0.453543v
 1.10118h 0.453543v -3.30353h 0.453543v 1.65177h 0.453543v 0.550589h 0.453543v 2.20235h 0.453543v -0.550589h 0.907087v -1.10118h 0.453543v 0.550589h 0.453543v -0.550589h 0.907087v -0.550589h 0.453543v 0.550589h 0.453543v 0.550589h 0.453543v 0.550589h
 0.453543v -3.30353h 0.453543v 2.75294h 0.453543v -0.550589h 0.453543v 1.10118h 1.81417v -0.550589h 0.453543v -0.550589h 0.453543v 1.65177h 0.453543v -1.10118h 0.453543v -1.10118h 0.453543v 1.65177h 0.453543v -1.65177h 0.453543v 0.550589h 0.453543v
 -0.550589h 0.453543v 0.550589h 0.453543v -0.550589h 0.453543v 1.10118h 0.453543v -1.10118h 0.907087v 1.10118h 0.453543v -0.550589h 0.453543v 0.550589h 0.453543v 0.550589h 0.453543v -1.10118h 0.453543v -1.65177h 0.453543v 2.75294h 1.36063v -1.10118h
 0.453543v -0.550589h 1.36063v 1.10118h 0.453543v -0.550589h 0.453543v 0.550589h 0.453543v 0.550589h 0.453543v -1.10118h 0.453543v 0.550589h 0.453543v -1.10118h 0.453543v 1.10118h 0.453543v -0.550589h 0.453543v 1.10118h 0.453543v -2.75294h 0.453543v
 2.20235h 0.453543v -1.65177h 0.453543v 1.10118h 0.453543v 0.550589h 0.453543v -2.20235h 0.453543v 2.75294h 0.453543v -1.65177h 0.453543v 1.65177h 0.453543v -2.20235h 0.453543v 0.550589h 0.453543v -0.550589h 0.453543v 0.550589h 0.453543v 0.550589h
 0.453543v -1.10118h 0.907087v 1.10118h 0.453543v -1.10118h 0.453543v 1.65177h 0.453543v -2.20235h 0.453543v 1.65177h 0.453543v 1.10118h 0.453543v -2.75294h 0.453543v -1.10118h 0.453543v 2.75294h 0.453543v -0.550589h 0.453543v 0.550589h 0.453543v
 -0.550589h 0.453543v -0.550589h 0.453543v 1.65177h 0.453543v -1.65177h 0.453543v 0.550589h 0.453543v -1.10118h 0.907087v 0.550589h 0.907087v 0.550589h 0.453543v 1.10118h 0.453543v -2.20235h 0.453543v -2.75294h 0.453543v 5.50589h 0.453543v -1.10118h
 0.907087v -1.10118h 0.453543v -0.550589h 0.453543v -0.550589h 0.453543v 1.65177h 0.453543v 0.550589h 0.453543v -1.10118h 0.907087v -0.550589h 0.453543v 2.20235h 0.453543v -3.30353h 0.453543v 2.20235h 0.453543v -1.65177h 0.453543v 2.20235h 0.453543v
 -2.20235h 0.453543v -0.550589h 0.453543v 2.75294h 1.36063v -3.30353h 0.453543v 1.65177h 0.453543v 1.10118h 0.453543v -1.10118h 0.453543v 1.65177h 0.907087v -1.65177h 0.453543v 1.10118h 0.453543v -1.10118h 0.453543v 1.65177h 0.453543v -2.75294h
 0.453543v 2.20235h 0.453543v -2.20235h 0.907087v 2.20235h 0.453543v 1.10118h 0.453543v -2.20235h 0.453543v 1.65177h 0.453543v -1.10118h 0.453543v 1.65177h 0.453543v -1.10118h 0.453543v -1.65177h 0.453543v 1.65177h 0.453543v -3.85412h 0.453543v
 3.85412h 0.453543v 0.550589h 0.453543v -2.20235h 0.453543v 0.550589h 0.453543v 0.550589h 0.907087v -3.30353h 0.453543v 5.50589h 0.453543v -4.9553h 0.453543v 3.85412h 0.453543v -1.65177h 0.907087v -1.65177h 0.453543v 3.30353h 0.907087v -1.65177h
 0.453543v -0.550589h 0.453543v -1.10118h 0.453543v 1.65177h 0.907087v -0.550589h 0.453543v -0.550589h 0.907087v -1.65177h 0.453543v 1.65177h 0.453543v 0.550589h 0.453543v 1.10118h 0.907087v -1.10118h 0.453543v -4.40471h 0.453543v 6.05647h 0.453543v
 -1.10118h 0.453543v -3.30353h 0.453543v -0.550589h 0.453543v 1.10118h 0.453543v -1.65177h 0.453543v 3.30353h 0.453543v -0.550589h 0.453543v -2.20235h 0.453543v 3.85412h 0.453543v -0.550589h 0.453543v -7.70824h 0.453543v 4.40471h 0.453543v 1.65177h
 0.453543v 1.10118h 0.453543v -1.10118h 0.453543v -3.30353h 0.453543v 3.30353h 0.453543v 1.65177h 0.453543v -3.85412h 0.453543v 3.85412h 0.453543v -3.30353h 0.453543v -2.20235h 0.453543v 2.75294h 0.453543v 1.65177h 0.453543v -1.10118h 0.907087v
 -1.65177h 0.453543v 3.85412h 0.453543v -3.30353h 0.453543v 2.20235h 0.907087v -2.75294h 0.453543v -1.65177h 0.453543v 0.550589h 0.453543v 3.30353h 0.453543v -1.65177h 0.453543v -3.30353h 0.453543v -0.550589h 0.453543v 7.15765h 0.453543v -3.85412h
 0.453543v -3.30353h 0.453543v 6.60706h 0.453543v -4.9553h 0.453543v -1.10118h 0.453543v 2.20235h 0.453543v -1.10118h 1.36063v 1.65177h 0.453543v -0.550589h 0.453543v 0.550589h 0.453543v 2.20235h 0.453543v -0.550589h 0.453543v -7.70824h 0.453543v
 4.9553h 0.453543v -1.65177h 0.453543v -1.65177h 0.453543v -1.65177h 0.453543v 1.65177h 0.453543v -0.550589h 0.453543v 0.550589h 0.453543v -2.75294h 0.453543v -1.65177h 0.453543v 6.05647h 0.453543v 0.550589h 0.453543v -2.20235h 0.453543v 2.20235h
 0.453543v -3.30353h 0.907087v 2.75294h 0.453543v -1.10118h 0.907087v 2.20235h 0.453543v -3.30353h 0.453543v 2.20235h 0.453543v -6.05647h 0.453543v 2.75294h 0.453543v -1.65177h 0.453543v 3.30353h 0.453543v -6.60706h 0.453543v 1.10118h 0.453543v
 5.50589h 0.453543v -3.85412h 0.453543v 0.550589h 0.453543v 0.550589h 0.907087v -3.30353h 0.453543v 6.60706h 0.453543v -3.85412h 0.453543v -4.9553h 0.453543v 1.65177h 0.453543v 0.550589h 0.453543v 3.85412h 0.453543v -5.50589h 0.453543v -3.85412h
 0.453543v 2.75294h 0.453543v -5.50589h 0.453543v 1.65177h 0.453543v 3.85412h 0.453543v -6.05647h 0.453543v 3.85412h 0.453543v -1.10118h 0.453543v -13.7647h 0.453543v 11.0118h 0.453543v -7.70824h 0.453543v 9.36001h 0.453543v -0.550589h 0.453543v
 -1.10118h 0.453543v -4.40471h 0.453543v -9.36001h 0.453543v 11.5624h 0.453543v -3.85412h 0.453543v -7.70824h 0.453543v 7.15765h 0.453543v -8.80942h 0.453543v 0.550589h 0.453543v 1.65177h 0.453543v -3.85412h 0.453543v 4.40471h 0.453543v 1.10118h
 0.453543v -1.65177h 0.453543v -3.30353h 0.453543v -5.50589h 0.453543v 4.40471h 0.453543v 2.20235h 0.453543v -5.50589h 0.453543v -6.05647h 0.453543v -6.05647h 0.453543v 6.60706h 0.453543v 1.65177h 0.907087v -15.9671h 0.453543v 7.70824h 0.453543v
 -4.40471h 0.453543v -6.60706h 0.453543v 11.0118h 0.453543v -3.30353h 0.453543v 2.75294h 0.453543v -7.15765h 0.453543v -9.36001h 0.453543v 7.70824h 0.453543v -13.7647h 0.453543v -7.15765h 0.453543v 9.36001h 0.453543v -3.30353h 0.453543v 9.91059h
 0.453543v -15.9671h 0.453543v 12.1129h 0.453543v -11.0118h 0.453543v 12.6635h 0.453543v -26.9788h 0.453543v 8.25883h 0.453543v -2.75294h 0.453543v -5.50589h 0.453543v -7.15765h 0.453543v -5.50589h 0.453543v 18.72h 0.453543v -19.2706h 0.453543v
 6.60706h 0.453543v 2.75294h 0.453543v -5.50589h 0.453543v -2.75294h 0.453543v -19.8212h 0.453543v 2.20235h 0.453543v -16.5177h 0.453543v 15.9671h 0.453543v -11.0118h 0.453543v -14.3153h 0.453543v 1.65177h 0.453543v 18.72h 0.453543v -15.9671h
 0.453543v 12.1129h 0.453543v -6.05647h 0.453543v -16.5177h 0.453543v 2.20235h 0.453543v -6.60706h 0.453543v 12.6635h 0.453543v -12.1129h 0.453543v -4.40471h 0.907087v -8.25883h 0.453543v 4.40471h 0.453543v -22.0235h 0.453543v 6.60706h 0.453543v
 -14.8659h 0.453543v 11.0118h 0.453543v 3.30353h 0.453543v -13.2141h 0.453543v -14.8659h 0.453543v 8.25883h 0.453543v -7.15765h 0.453543v 4.40471h 0.453543v -29.1812h 0.453543v 17.0682h 0.453543v 19.8212h 0.453543v -9.36001h 0.453543v -9.36001h
 0.453543v 9.36001h 0.453543v -19.2706h 0.453543v 1.10118h 0.907087v -11.0118h 0.453543v -6.60706h 0.453543v 1.10118h 0.453543v -20.9224h 0.453543v 6.60706h 0.453543v -17.6188h 0.453543v 18.72h 0.453543v 7.70824h 0.453543v 6.60706h 0.453543v
 -18.1694h 0.453543v 12.6635h 0.453543v -19.8212h 0.453543v 15.9671h 0.453543v -19.2706h 0.453543v -4.40471h 0.453543v 15.9671h 0.453543v -11.5624h 0.453543v 11.5624h 0.453543v -16.5177h 0.907087v 28.08h 0.453543v -0.550589h 0.453543v -26.4283h
 0.453543v 26.4283h 0.453543v -20.9224h 0.453543v -1.10118h 0.453543v -15.4165h 0.453543v 24.7765h 0.907087v 2.20235h 0.453543v -18.72h 0.453543v 7.70824h 0.453543v 20.3718h 0.453543v 0.550589h 0.453543v -8.25883h 0.453543v -24.7765h 0.453543v
 55.0589h 0.453543v -47.9012h 0.453543v 14.8659h 0.453543v 20.3718h 0.453543v -10.4612h 0.453543v 23.1247h 0.453543v -12.6635h 0.453543v -7.15765h 0.453543v 13.2141h 0.453543v -5.50589h 0.453543v -3.85412h 0.453543v 8.25883h 0.453543v 13.2141h
 0.453543v -3.30353h 0.453543v -0.550589h 0.453543v 4.40471h 0.453543v -1.65177h 0.453543v -20.3718h 0.453543v 39.0918h 0.453543v -8.25883h 0.453543v 8.80942h 0.453543v -24.2259h 0.453543v 17.0682h 0.453543v -7.15765h 0.453543v 37.44h 0.453543v
 -1.10118h 0.453543v -14.8659h 0.453543v 5.50589h 0.453543v 11.0118h 0.453543v 4.40471h 0.453543v -11.5624h 0.453543v -15.9671h 0.453543v 40.7436h 0.907087v -6.60706h 0.453543v 7.15765h 0.453543v 9.91059h 0.453543v 2.75294h 0.453543v 9.91059h
 0.453543v -22.5741h 0.453543v 20.9224h 0.453543v -13.7647h 0.453543v 37.44h 0.453543v -14.8659h 0.453543v 3.30353h 0.453543v -0.550589h 0.453543v 12.1129h 0.453543v -9.91059h 0.453543v 23.1247h 0.453543v -3.30353h 0.453543v 5.50589h 0.453543v
 -13.7647h 0.453543v 13.7647h 0.453543v 8.25883h 0.453543v 2.75294h 0.453543v -11.0118h 0.453543v 7.70824h 0.453543v 20.3718h 0.453543v -11.0118h 0.453543v 6.05647h 0.453543v -11.0118h 0.453543v 22.0235h 0.453543v -11.5624h 0.453543v 6.60706h
 0.453543v 2.75294h 0.453543v -1.65177h 0.453543v 7.15765h 0.453543v 13.2141h 0.453543v -9.36001h 0.453543v 2.20235h 0.453543v 4.40471h 0.453543v 6.05647h 0.453543v -8.80942h 0.453543v 11.0118h 0.453543v 2.75294h 0.453543v -0.550589h 0.453543v
 -5.50589h 0.453543v 3.85412h 0.453543v -6.60706h 0.453543v 2.75294h 0.453543v 6.60706h 0.453543v -0.550589h 0.453543v 12.1129h 0.453543v -3.85412h 0.453543v 7.70824h 0.453543v -17.6188h 0.453543v 8.25883h 0.453543v 6.60706h 0.453543v 4.9553h
 0.453543v 5.50589h 0.453543v -4.40471h 0.453543v 0.550589h 0.453543v -6.05647h 0.453543v 0.550589h 0.453543v 10.4612h 0.453543v -10.4612h 0.453543v 8.80942h 0.453543v 8.25883h 0.453543v -2.20235h 0.453543v -4.9553h 0.453543v 4.9553h 0.453543v
 -2.20235h 0.453543v 1.65177h 0.453543v -2.75294h 0.453543v -1.10118h 0.453543v 4.9553h 0.453543v 2.20235h 0.453543v -5.50589h 0.453543v -1.65177h 0.453543v 8.80942h 0.453543v -5.50589h 0.453543v 2.75294h 0.453543v -2.20235h 0.453543v -1.10118h
 0.453543v 8.25883h 0.453543v 2.75294h 0.453543v 1.10118h 0.453543v -5.50589h 0.453543v 4.40471h 0.453543v -1.65177h 0.453543v -4.9553h 0.453543v 6.05647h 0.453543v -1.10118h 0.453543v 3.85412h 0.453543v -1.10118h 0.453543v 3.85412h 0.453543v
 -5.50589h 0.453543v 4.40471h 0.453543v 0.550589h 0.453543v -3.85412h 0.453543v -1.10118h 0.453543v 1.65177h 0.453543v 2.20235h 0.453543v 2.75294h 0.453543v 0.550589h 0.453543v 2.75294h 0.453543v -6.60706h 0.453543v 0.550589h 0.453543v 3.30353h
 0.453543v -1.10118h 0.453543v -2.20235h 0.453543v -0.550589h 0.453543v 3.30353h 0.453543v 0.550589h 0.453543v -3.85412h 0.453543v 3.30353h 0.453543v 3.30353h 0.907087v -1.65177h 0.453543v -2.75294h 0.453543v 2.75294h 0.453543v -6.05647h 0.453543v
 6.05647h 0.453543v -2.75294h 0.453543v 1.65177h 0.453543v 2.20235h 0.907087v 1.10118h 0.453543v -0.550589h 0.453543v 2.20235h 0.453543v -3.30353h 0.453543v 1.10118h 0.907087v -1.10118h 0.453543v 1.65177h 0.453543v -2.75294h 0.453543v 1.65177h
 0.907087v 1.10118h 0.453543v -2.20235h 0.453543v 2.75294h 0.453543v -3.30353h 0.453543v 3.30353h 0.453543v -1.10118h 0.453543v 1.65177h 0.453543v -0.550589h 0.907087v 1.10118h 0.907087v -2.75294h 0.907087v 1.10118h 0.453543v -0.550589h 0.453543v
 2.20235h 0.453543v -0.550589h 0.907087v -1.10118h 0.453543v 1.10118h 0.453543v -0.550589h 0.453543v -1.10118h 0.453543v 2.20235h 0.907087v -0.550589h 0.453543v 1.10118h 0.453543v -1.10118h 0.907087v 1.65177h 0.453543v -2.20235h 0.907087v 0.550589h
 0.907087v -1.65177h 0.453543v 1.65177h 0.453543v 0.550589h 0.453543v -1.10118h 0.453543v 1.10118h 0.453543v 0.550589h 0.453543v -0.550589h 0.907087v 0.550589h 0.453543v -2.75294h 0.453543v 3.30353h 0.907087v -0.550589h 0.453543v -2.20235h 0.453543v
 2.75294h 0.907087v -1.65177h 0.453543v 1.10118h 0.453543v 0.550589h 0.907087v -0.550589h 0.453543v 0.550589h 0.453543v -3.30353h 0.453543v 0.550589h 0.453543v 1.65177h 0.453543v 0.550589h 0.453543v 0.550589h 0.453543v -1.65177h 0.453543v 1.10118h
 0.453543v 0.550589h 0.453543v -2.20235h 0.453543v 1.10118h 0.453543v 0.550589h 0.453543v 0.550589h 0.453543v -1.10118h 0.453543v 1.10118h 0.453543v -0.550589h 0.453543v -1.10118h 0.453543v 1.10118h 0.453543v -1.65177h 0.453543v 1.65177h 0.907087v
 -1.10118h 0.453543v 1.10118h 0.453543v -0.550589h 0.453543v 0.550589h 0.453543v 0.550589h 0.453543v -1.10118h 0.453543v 1.10118h 0.907087v -0.550589h 0.453543v -1.10118h 0.453543v 1.65177h 0.907087v -0.550589h 1.36063v 0.550589h 0.907087v -0.550589h
 0.453543v 0.550589h 0.453543v -1.10118h 0.453543v 1.10118h 0.907087v -0.550589h 1.36063v 0.550589h 0.453543v -1.10118h 0.453543v 1.10118h 0.907087v -0.550589h 0.453543v 0.550589h 0.453543v -1.10118h 0.453543v 0.550589h 0.453543v 0.550589h 1.81417v
 -0.550589h 0.453543v 0.550589h 1.81417v -0.550589h 0.907087v 0.550589h 0.453543v -0.550589h 0.907087v 0.550589h 0.453543v -0.550589h 1.81417v 0.550589h 0.907087v -0.550589h 1.36063v 0.550589h 2.26772v -0.550589h 0.453543v 0.550589h 1.36063v
 -1.10118h 0.453543v 0.550589h 0.907087v 0.550589h 2.72126v -0.550589h 0.453543v 0.550589h 0.453543v -0.550589h 0.453543v 0.550589h 0.907087v -0.550589h 0.453543v 0.550589h 0.453543v -1.65177h 0.453543v 1.65177h 2.72126v -0.550589h 0.453543v
 0.550589h 0.907087v -1.10118h 0.453543v 0.550589h 0.453543v 0.550589h 1.81417v -0.550589h 0.453543v 0.550589h 0.453543v -0.550589h 0.907087v 0.550589h 0.907087v -0.550589h 0.907087v 0.550589h 0.453543v -1.10118h 0.453543v 1.10118h 5.44252v
 -0.550589h 0.453543v 0.550589h 0.907087v -0.550589h 0.453543v 0.550589h 0.453543v -0.550589h 0.453543v -0.550589h 0.453543v 1.10118h 2.72126v -0.550589h 0.453543v 0.550589h 0.453543v -0.550589h 0.453543v 0.550589h 1.36063v -0.550589h 0.453543v
 0.550589h 0.453543v -0.550589h 0.453543v 0.550589h 1.36063v -0.550589h 0.453543v 0.550589h 0.453543v -0.550589h 1.81417v 0.550589h 1.81417v -0.550589h 0.907087v 0.550589h 1.81417v -0.550589h 0.453543v 0.550589h 0.453543v -1.10118h 0.453543v 1.10118h
 1.81417v -0.550589h 0.453543v 0.550589h 4.08189v -0.550589h 0.907087v 0.550589h 2.26772v -0.550589h 0.453543v 0.550589h 3.1748v -0.550589h 0.453543v 0.550589h 4.08189v -0.550589h 0.453543v 0.550589h 21.7701" fill="none" stroke="#000099"/>
<rect x="442.705" y="25.1301" width="113.386" height="61.8586" fill="white"/>
<path d="M442.705,86.9887h 113.386" fill="none" stroke="black"/>
<path d="M556.091,86.9887v -61.8586" fill="none" stroke="black"/>
<path d="M556.091,25.1301h -113.386" fill="none" stroke="black"/>
<path d="M442.705,25.1301v 61.8586" fill="none" stroke="black"/>
<text xml:space="preserve" x="482.958" y="37.3621" fill="black" font-size="13.5527" font-family="Helvetica">QHist</text>
<path d="M442.705,40.5947h 113.386" fill="none" stroke="black"/>
<text xml:space="preserve" x="448.033" y="52.7943" fill="black" font-size="12.8187" font-family="Helvetica">Entries </text>
<text xml:space="preserve" x="513.01" y="52.7943" fill="black" font-size="12.8187" font-family="Helvetica"> 66498</text>
<text xml:space="preserve" x="448.033" y="68.2264" fill="black" font-size="12.8187" font-family="Helvetica">Mean  </text>
<text xml:space="preserve" x="513.01" y="68.2264" fill="black" font-size="12.8187" font-family="Helvetica">0.6164</text>
<text xml:space="preserve" x="505.7" y="68.2264" fill="black" font-size="12.8187" font-family="Times">&#8722;</text>
<text xml:space="preserve" x="501.639" y="68.2264" fill="black" font-size="12.8187" font-family="Helvetica"> </text>
<text xml:space="preserve" x="448.033" y="83.6586" fill="black" font-size="12.8187" font-family="Helvetica">Std Dev   </text>
<text xml:space="preserve" x="513.01" y="83.6586" fill="black" font-size="12.8187" font-family="Helvetica">  2.857</text>
<path d="M57.1929,347.955h 453.543" fill="none" stroke="black"/>
<path d="M57.1929,338.676v 9.27879" fill="none" stroke="black"/>
<path d="M68.5315,343.315v 4.6394" fill="none" stroke="black"/>
<path d="M79.8701,343.315v 4.6394" fill="none" stroke="black"/>
<path d="M91.2087,343.315v 4.6394" fill="none" stroke="black"/>
<path d="M102.547,343.315v 4.6394" fill="none" stroke="black"/>
<path d="M113.886,338.676v 9.27879" fill="none" stroke="black"/>
<path d="M125.224,343.315v 4.6394" fill="none" stroke="black"/>
<path d="M136.563,343.315v 4.6394" fill="none" stroke="black"/>
<path d="M147.902,343.315v 4.6394" fill="none" stroke="black"/>
<path d="M159.24,343.315v 4.6394" fill="none" stroke="black"/>
<path d="M170.579,338.676v 9.27879" fill="none" stroke="black"/>
<path d="M181.917,343.315v 4.6394" fill="none" stroke="black"/>
<path d="M193.256,343.315v 4.6394" fill="none" stroke="black"/>
<path d="M204.594,343.315v 4.6394" fill="none" stroke="black"/>
<path d="M215.933,343.315v 4.6394" fill="none" stroke="black"/>
<path d="M227.272,338.676v 9.27879" fill="none" stroke="black"/>
<path d="M238.61,343.315v 4.6394" fill="none" stroke="black"/>
<path d="M249.949,343.315v 4.6394" fill="none" stroke="black"/>
<path d="M261.287,343.315v 4.6394" fill="none" stroke="black"/>
<path d="M272.626,343.315v 4.6394" fill="none" stroke="black"/>
<path d="M283.965,338.676v 9.27879" fill="none" stroke="black"/>
<path d="M295.303,343.315v 4.6394" fill="none" stroke="black"/>
<path d="M306.642,343.315v 4.6394" fill="none" stroke="black"/>
<path d="M317.98,343.315v 4.6394" fill="none" stroke="black"/>
<path d="M329.319,343.315v 4.6394" fill="none" stroke="black"/>
<path d="M340.657,338.676v 9.27879" fill="none" stroke="black"/>
<path d="M351.996,343.315v 4.6394" fill="none" stroke="black"/>
<path d="M363.335,343.315v 4.6394" fill="none" stroke="black"/>
<path d="M374.673,343.315v 4.6394" fill="none" stroke="black"/>
<path d="M386.012,343.315v 4.6394" fill="none" stroke="black"/>
<path d="M397.35,338.676v 9.27879" fill="none" stroke="black"/>
<path d="M408.689,343.315v 4.6394" fill="none" stroke="black"/>
<path d="M420.028,343.315v 4.6394" fill="none" stroke="black"/>
<path d="M431.366,343.315v 4.6394" fill="none" stroke="black"/>
<path d="M442.705,343.315v 4.6394" fill="none" stroke="black"/>
<path d="M454.043,338.676v 9.27879" fill="none" stroke="black"/>
<path d="M465.382,343.315v 4.6394" fill="none" stroke="black"/>
<path d="M476.72,343.315v 4.6394" fill="none" stroke="black"/>
<path d="M488.059,343.315v 4.6394" fill="none" stroke="black"/>
<path d="M499.398,343.315v 4.6394" fill="none" stroke="black"/>
<path d="M510.736,338.676v 9.27879" fill="none" stroke="black"/>
<text xml:space="preserve" x="52.482" y="360.625" fill="black" font-size="12.9143" font-family="Helvetica">20</text>
<text xml:space="preserve" x="45.1721" y="360.625" fill="black" font-size="12.9143" font-family="Times">&#8722;</text>
<text xml:space="preserve" x="109.337" y="360.625" fill="black" font-size="12.9143" font-family="Helvetica">15</text>
<text xml:space="preserve" x="102.027" y="360.625" fill="black" font-size="12.9143" font-family="Times">&#8722;</text>
<text xml:space="preserve" x="166.193" y="360.625" fill="black" font-size="12.9143" font-family="Helvetica">10</text>
<text xml:space="preserve" x="158.883" y="360.625" fill="black" font-size="12.9143" font-family="Times">&#8722;</text>
<text xml:space="preserve" x="226.297" y="360.625" fill="black" font-size="12.9143" font-family="Helvetica">5</text>
<text xml:space="preserve" x="219.799" y="360.625" fill="black" font-size="12.9143" font-family="Times">&#8722;</text>
<text xml:space="preserve" x="279.903" y="360.625" fill="black" font-size="12.9143" font-family="Helvetica">0</text>
<text xml:space="preserve" x="335.947" y="360.625" fill="black" font-size="12.9143" font-family="Helvetica">5</text>
<text xml:space="preserve" x="389.553" y="360.625" fill="black" font-size="12.9143" font-family="Helvetica">10</text>
<text xml:space="preserve" x="446.408" y="360.625" fill="black" font-size="12.9143" font-family="Helvetica">15</text>
<text xml:space="preserve" x="503.264" y="360.625" fill="black" font-size="12.9143" font-family="Helvetica">20</text>
<text xml:space="preserve" x="401.736" y="373.621" fill="black" font-size="12.9143" font-family="Helvetica">Q Value (MeV/c^2)</text>
<path d="M57.1929,347.955v -309.293" fill="none" stroke="black"/>
<path d="M70.7992,347.955h -13.6063" fill="none" stroke="black"/>
<path d="M63.9961,336.943h -6.80315" fill="none" stroke="black"/>
<path d="M63.9961,325.931h -6.80315" fill="none" stroke="black"/>
<path d="M63.9961,314.919h -6.80315" fill="none" stroke="black"/>
<path d="M63.9961,303.908h -6.80315" fill="none" stroke="black"/>
<path d="M70.7992,292.896h -13.6063" fill="none" stroke="black"/>
<path d="M63.9961,281.884h -6.80315" fill="none" stroke="black"/>
<path d="M63.9961,270.872h -6.80315" fill="none" stroke="black"/>
<path d="M63.9961,259.861h -6.80315" fill="none" stroke="black"/>
<path d="M63.9961,248.849h -6.80315" fill="none" stroke="black"/>
<path d="M70.7992,237.837h -13.6063" fill="none" stroke="black"/>
<path d="M63.9961,226.825h -6.80315" fill="none" stroke="black"/>
<path d="M63.9961,215.814h -6.80315" fill="none" stroke="black"/>
<path d="M63.9961,204.802h -6.80315" fill="none" stroke="black"/>
<path d="M63.9961,193.79h -6.80315" fill="none" stroke="black"/>
<path d="M70.7992,182.778h -13.6063" fill="none" stroke="black"/>
<path d="M63.9961,171.766h -6.80315" fill="none" stroke="black"/>
<path d="M63.9961,160.755h -6.80315" fill="none" stroke="black"/>
<path d="M63.9961,149.743h -6.80315" fill="none" stroke="black"/>
<path d="M63.9961,138.731h -6.80315" fill="none" stroke="black"/>
<path d="M70.7992,127.719h -13.6063" fill="none" stroke="black"/>
<path d="M63.9961,116.708h -6.80315" fill="none" stroke="black"/>
<path d="M63.9961,105.696h -6.80315" fill="none" stroke="black"/>
<path d="M63.9961,94.684h -6.80315" fill="none" stroke="black"/>
<path d="M63.9961,83.6723h -6.80315" fill="none" stroke="black"/>
<path d="M70.7992,72.6605h -13.6063" fill="none" stroke="black"/>
<path d="M70.7992,72.6605h -13.6063" fill="none" stroke="black"/>
<path d="M63.9961,61.6487h -6.80315" fill="none" stroke="black"/>
<path d="M63.9961,50.6369h -6.80315" fill="none" stroke="black"/>
<path d="M63.9961,39.6252h -6.80315" fill="none" stroke="black"/>
<text xml:space="preserve" x="46.7965" y="352.503" fill="black" font-size="12.9143" font-family="Helvetica">0</text>
<text xml:space="preserve" x="32.9888" y="297.272" fill="black" font-size="12.9143" font-family="Helvetica">100</text>
<text xml:space="preserve" x="32.9888" y="242.041" fill="black" font-size="12.9143" font-family="Helvetica">200</text>
<text xml:space="preserve" x="32.9888" y="187.623" fill="black" font-size="12.9143" font-family="Helvetica">300</text>
<text xml:space="preserve" x="32.9888" y="132.392" fill="black" font-size="12.9143" font-family="Helvetica">400</text>
<text xml:space="preserve" x="32.9888" y="77.1608" fill="black" font-size="12.9143" font-family="Helvetica">500</text>
<g transform="rotate(-90,19.181,99.903)">
<text xml:space="preserve" x="19.181" y="99.903" fill="black" font-size="12.9143" font-family="Helvetica">Frequency</text>
</g>
<rect x="442.705" y="25.1301" width="113.386" height="61.8586" fill="white"/>
<path d="M442.705,86.9887h 113.386" fill="none" stroke="black"/>
<path d="M556.091,86.9887v -61.8586" fill="none" stroke="black"/>
<path d="M556.091,25.1301h -113.386" fill="none" stroke="black"/>
<path d="M442.705,25.1301v 61.8586" fill="none" stroke="black"/>
<text xml:space="preserve" x="482.958" y="37.3621" fill="black" font-size="13.5527" font-family="Helvetica">QHist</text>
<path d="M442.705,40.5947h 113.386" fill="none" stroke="black"/>
<text xml:space="preserve" x="448.033" y="52.7943" fill="black" font-size="12.8187" font-family="Helvetica">Entries </text>
<text xml:space="preserve" x="513.01" y="52.7943" fill="black" font-size="12.8187" font-family="Helvetica"> 66498</text>
<text xml:space="preserve" x="448.033" y="68.2264" fill="black" font-size="12.8187" font-family="Helvetica">Mean  </text>
<text xml:space="preserve" x="513.01" y="68.2264" fill="black" font-size="12.8187" font-family="Helvetica">0.6164</text>
<text xml:space="preserve" x="505.7" y="68.2264" fill="black" font-size="12.8187" font-family="Times">&#8722;</text>
<text xml:space="preserve" x="501.639" y="68.2264" fill="black" font-size="12.8187" font-family="Helvetica"> </text>
<text xml:space="preserve" x="448.033" y="83.6586" fill="black" font-size="12.8187" font-family="Helvetica">Std Dev   </text>
<text xml:space="preserve" x="513.01" y="83.6586" fill="black" font-size="12.8187" font-family="Helvetica">  2.857</text>
<text xml:space="preserve" x="253.1" y="18.681" fill="black" font-size="17.0819" font-family="Helvetica">Q Value</text></svg>
