<?xml version="1.0" standalone="no"?>
<svg width="567.429" height="387.116" viewBox="0 0 567.429 387.116" xmlns="http://www.w3.org/2000/svg" shape-rendering="crispEdges">
<title>
/home/local1/eclipse-workspace/Dev/Geant4-Development/Scripts/AValueMk.svg
</title>
<desc>
Creator: ROOT Version 6.18/04
CreationDate: Wed Apr 19 15:54:41 2023</desc>
<defs>
</defs>
<rect x="0.5" y="0" width="566.929" height="386.616" fill="white"/>
<rect x="57.1929" y="38.6616" width="453.543" height="309.293" fill="white"/>
<rect x="57.1929" y="38.6616" width="453.543" height="309.293" fill="none" stroke="black"/>
<rect x="57.1929" y="38.6616" width="453.543" height="309.293" fill="white"/>
<rect x="57.1929" y="38.6616" width="453.543" height="309.293" fill="none" stroke="black"/>
<path d="M57.1929,347.955h 41.2724v -0.834461h 0.453543v 0.834461h 19.5024v -0.834461h 0.907087v 0.834461h 2.72126v -0.834461h 0.453543v 0.834461h 1.81417v -0.834461h 0.453543v 0.834461h 0.453543v -0.834461h 0.453543v 0.834461h 0.453543v -0.834461h
 0.907087v 0.834461h 0.453543v -0.834461h 0.907087v 0.834461h 0.907087v -0.834461h 0.453543v 0.834461h 0.453543v -0.834461h 0.453543v -0.834461h 0.453543v 1.66892h 2.26772v -0.834461h 0.453543v -1.66892h 0.453543v 0.834461h 0.453543v 0.834461h
 1.36063v -0.834461h 0.453543v 0.834461h 0.453543v -1.66892h 0.453543v 2.50338h 1.36063v -1.66892h 0.453543v 1.66892h 0.453543v -0.834461h 0.453543v 0.834461h 0.453543v -0.834461h 0.453543v 0.834461h 1.36063v -0.834461h 0.453543v 0.834461h 0.453543v
 -0.834461h 0.453543v -0.834461h 0.453543v 1.66892h 0.453543v -0.834461h 0.453543v -0.834461h 0.453543v -0.834461h 0.453543v 0.834461h 0.453543v 0.834461h 0.907087v -0.834461h 0.453543v -0.834461h 0.453543v 1.66892h 0.453543v -1.66892h 0.453543v
 2.50338h 0.907087v -1.66892h 0.453543v -2.50338h 0.453543v 1.66892h 0.453543v 1.66892h 0.907087v -0.834461h 0.453543v -1.66892h 0.453543v 2.50338h 0.907087v -4.17231h 0.453543v 2.50338h 0.907087v 0.834461h 0.453543v -1.66892h 0.453543v 1.66892h
 0.907087v -1.66892h 0.453543v 1.66892h 0.453543v -1.66892h 0.453543v -2.50338h 0.453543v 4.17231h 0.453543v -1.66892h 0.453543v 0.834461h 0.453543v -1.66892h 0.453543v 3.33785h 0.453543v -6.67569h 0.453543v -4.17231h 0.453543v 3.33785h 0.453543v
 2.50338h 0.907087v 0.834461h 0.453543v -0.834461h 0.453543v 4.17231h 0.453543v -2.50338h 0.453543v -1.66892h 0.453543v -1.66892h 0.453543v 4.17231h 0.453543v -0.834461h 0.453543v -0.834461h 0.453543v -2.50338h 0.453543v -1.66892h 0.453543v 3.33785h
 0.907087v 3.33785h 0.453543v -1.66892h 0.453543v 4.17231h 0.453543v -7.51015h 0.453543v 2.50338h 0.453543v -5.00677h 0.907087v 1.66892h 0.453543v -3.33785h 0.453543v -0.834461h 0.907087v 3.33785h 0.453543v -3.33785h 0.453543v 0.834461h 0.453543v
 -1.66892h 0.907087v -4.17231h 0.453543v 2.50338h 0.453543v -0.834461h 0.453543v -2.50338h 0.453543v 5.84123h 0.453543v -10.0135h 0.453543v 8.34461h 0.453543v -5.84123h 0.453543v 4.17231h 0.453543v -0.834461h 0.453543v 7.51015h 0.453543v -6.67569h
 0.453543v 9.17908h 0.453543v -10.848h 0.453543v -5.84123h 0.453543v 2.50338h 0.453543v -0.834461h 0.453543v -6.67569h 0.453543v 8.34461h 0.453543v -6.67569h 0.453543v 1.66892h 0.453543v -0.834461h 0.453543v 7.51015h 0.453543v -7.51015h 0.453543v
 -7.51015h 0.453543v 6.67569h 0.453543v 10.848h 0.453543v -5.84123h 0.453543v -7.51015h 0.453543v 3.33785h 0.453543v -9.17908h 0.453543v 6.67569h 0.907087v -2.50338h 0.453543v -9.17908h 0.453543v 5.84123h 0.453543v -0.834461h 0.453543v -1.66892h
 0.453543v 7.51015h 0.453543v -5.84123h 0.453543v -4.17231h 0.453543v -8.34461h 0.453543v 8.34461h 0.453543v 1.66892h 0.453543v 1.66892h 0.453543v -10.0135h 0.453543v -0.834461h 0.453543v 8.34461h 0.453543v -1.66892h 0.453543v -7.51015h 0.453543v
 -1.66892h 0.453543v -5.84123h 0.453543v -5.00677h 0.453543v 0.834461h 0.453543v 11.6825h 0.453543v 6.67569h 0.453543v -10.0135h 0.453543v -2.50338h 0.453543v -3.33785h 0.453543v 2.50338h 0.453543v -11.6825h 0.453543v 8.34461h 0.453543v -6.67569h
 0.453543v 3.33785h 0.453543v -9.17908h 0.453543v 5.84123h 0.453543v 11.6825h 0.453543v -8.34461h 0.453543v 4.17231h 0.453543v -10.0135h 0.453543v 20.8615h 0.453543v -20.8615h 0.453543v -19.1926h 0.453543v 17.5237h 0.453543v 12.5169h 0.453543v
 -14.1858h 0.453543v -8.34461h 0.453543v 9.17908h 0.453543v -18.3582h 0.453543v 5.00677h 0.453543v -5.84123h 0.453543v 9.17908h 0.453543v -16.6892h 0.453543v 3.33785h 0.453543v -10.0135h 0.453543v -0.834461h 0.453543v -5.84123h 0.453543v 15.0203h
 0.453543v 0.834461h 0.453543v -10.848h 0.453543v 2.50338h 0.453543v 2.50338h 0.453543v -10.0135h 0.453543v -5.00677h 0.453543v -4.17231h 0.453543v 6.67569h 0.453543v -18.3582h 0.453543v 20.0271h 0.453543v 1.66892h 0.453543v -20.8615h 0.453543v
 11.6825h 0.453543v 1.66892h 0.907087v -22.5305h 0.453543v 2.50338h 0.453543v 16.6892h 0.453543v -11.6825h 0.453543v -3.33785h 0.453543v -3.33785h 0.453543v -10.848h 0.453543v 8.34461h 0.453543v -5.84123h 0.453543v 3.33785h 0.453543v 14.1858h
 0.453543v -25.8683h 0.453543v 1.66892h 0.453543v -10.0135h 0.453543v -16.6892h 0.453543v 31.7095h 0.453543v 24.1994h 0.453543v -45.0609h 0.453543v 15.0203h 0.453543v -1.66892h 0.453543v 20.0271h 0.453543v -7.51015h 0.453543v -8.34461h 0.453543v
 -3.33785h 0.453543v -23.3649h 0.453543v -5.84123h 0.453543v 15.8548h 0.453543v -3.33785h 0.907087v -20.8615h 0.453543v 5.84123h 0.453543v 8.34461h 0.453543v -8.34461h 0.453543v 19.1926h 0.453543v -21.696h 0.453543v 10.0135h 0.453543v -7.51015h
 0.453543v 5.00677h 0.453543v -9.17908h 0.453543v -15.0203h 0.453543v -2.50338h 0.453543v 19.1926h 0.453543v 1.66892h 0.453543v -11.6825h 0.453543v -1.66892h 0.453543v 3.33785h 0.453543v -27.5372h 0.453543v 2.50338h 0.453543v 5.84123h 0.453543v
 9.17908h 0.453543v -10.848h 0.453543v -2.50338h 0.453543v 9.17908h 0.907087v -18.3582h 0.453543v 9.17908h 0.453543v 7.51015h 0.453543v -7.51015h 0.453543v -13.3514h 0.453543v 5.84123h 0.453543v -21.696h 0.453543v 19.1926h 0.907087v -37.5508h
 0.453543v 30.0406h 0.907087v 8.34461h 0.453543v 9.17908h 0.453543v -22.5305h 0.453543v -15.8548h 0.453543v -10.848h 0.453543v 39.2197h 0.453543v -17.5237h 0.453543v 25.0338h 0.453543v -18.3582h 0.453543v 0.834461h 0.453543v -1.66892h 0.453543v
 -13.3514h 0.453543v 31.7095h 0.453543v -16.6892h 0.453543v -3.33785h 0.453543v -15.0203h 0.453543v -14.1858h 0.453543v 21.696h 0.453543v 10.0135h 0.453543v -17.5237h 0.453543v -18.3582h 0.453543v 30.0406h 0.907087v -35.0474h 0.453543v 36.7163h
 0.453543v -1.66892h 0.453543v -25.8683h 0.453543v 3.33785h 0.453543v 22.5305h 0.453543v -30.0406h 0.453543v 21.696h 0.453543v -2.50338h 0.453543v 5.00677h 0.453543v -10.848h 0.453543v 1.66892h 0.453543v -10.0135h 0.453543v 2.50338h 0.453543v
 -13.3514h 0.453543v 22.5305h 0.453543v 15.0203h 0.453543v -2.50338h 0.453543v -14.1858h 0.453543v 5.84123h 0.453543v -17.5237h 0.453543v 3.33785h 0.453543v -10.848h 0.453543v 19.1926h 0.453543v 9.17908h 0.453543v 10.848h 0.453543v -52.5711h
 0.453543v 30.8751h 0.453543v -19.1926h 0.453543v -3.33785h 0.453543v 24.1994h 0.453543v -4.17231h 0.453543v 1.66892h 0.453543v 7.51015h 0.453543v -10.0135h 0.453543v 9.17908h 0.453543v 16.6892h 0.453543v 4.17231h 0.453543v -36.7163h 0.453543v
 19.1926h 0.453543v 10.848h 0.453543v -16.6892h 0.453543v 29.2062h 0.453543v -26.7028h 0.453543v 5.00677h 0.453543v 10.848h 0.453543v 21.696h 0.453543v 15.0203h 0.453543v -53.4055h 0.453543v 12.5169h 0.453543v -8.34461h 0.453543v 35.0474h 0.453543v
 -29.2062h 0.453543v -18.3582h 0.453543v -11.6825h 0.453543v 43.392h 0.453543v -8.34461h 0.453543v -5.00677h 0.453543v 7.51015h 0.453543v -0.834461h 0.453543v 0.834461h 0.453543v 16.6892h 0.453543v -10.0135h 0.453543v -14.1858h 0.453543v -6.67569h
 0.453543v 39.2197h 0.453543v -5.00677h 0.453543v -8.34461h 0.453543v 1.66892h 0.453543v -7.51015h 0.453543v 10.0135h 0.453543v -1.66892h 0.453543v -18.3582h 0.453543v 13.3514h 0.453543v 23.3649h 0.453543v -26.7028h 0.453543v 6.67569h 0.453543v
 6.67569h 0.453543v -2.50338h 0.453543v -1.66892h 0.453543v 16.6892h 0.453543v -2.50338h 0.453543v -13.3514h 0.453543v 6.67569h 0.453543v 1.66892h 0.453543v -3.33785h 0.453543v 15.8548h 0.453543v 27.5372h 0.453543v -20.8615h 0.453543v 5.84123h
 0.453543v -17.5237h 0.453543v 16.6892h 0.453543v -11.6825h 0.453543v 2.50338h 0.453543v 22.5305h 0.453543v -25.0338h 0.453543v 11.6825h 0.453543v 14.1858h 0.453543v -15.8548h 0.453543v -12.5169h 0.453543v 10.848h 0.453543v 23.3649h 0.453543v
 -11.6825h 0.453543v -15.0203h 0.453543v 39.2197h 0.453543v -17.5237h 0.453543v 8.34461h 0.453543v 5.84123h 0.453543v -5.00677h 0.453543v 0.834461h 0.453543v 9.17908h 0.453543v -5.84123h 0.907087v -8.34461h 0.453543v 22.5305h 0.453543v -23.3649h
 0.453543v 19.1926h 0.453543v 25.0338h 0.453543v -21.696h 0.453543v 7.51015h 0.453543v -27.5372h 0.453543v 28.3717h 0.907087v -23.3649h 0.453543v 24.1994h 0.453543v -6.67569h 0.453543v 7.51015h 0.453543v -8.34461h 0.453543v 11.6825h 0.453543v
 22.5305h 0.453543v -15.8548h 0.453543v -0.834461h 0.453543v 12.5169h 0.453543v -5.00677h 0.453543v 3.33785h 0.453543v -6.67569h 0.453543v 9.17908h 0.453543v 3.33785h 0.453543v -3.33785h 0.453543v 5.84123h 0.453543v 0.834461h 0.453543v 8.34461h
 0.453543v -14.1858h 0.453543v 11.6825h 0.453543v -0.834461h 0.453543v -7.51015h 0.453543v 1.66892h 0.453543v 5.84123h 0.453543v 0.834461h 0.453543v -5.00677h 0.453543v 28.3717h 0.453543v 2.50338h 0.453543v -21.696h 0.453543v -8.34461h 0.453543v
 16.6892h 0.453543v -10.848h 0.453543v 23.3649h 0.453543v 5.84123h 0.453543v 6.67569h 0.453543v -20.8615h 0.453543v -6.67569h 0.453543v 15.8548h 0.453543v 4.17231h 0.907087v 11.6825h 0.453543v -11.6825h 0.453543v -5.84123h 0.453543v 8.34461h
 0.453543v -10.848h 0.453543v 9.17908h 0.453543v 8.34461h 0.453543v -11.6825h 0.453543v 12.5169h 0.453543v 13.3514h 0.453543v -10.848h 0.453543v -12.5169h 0.453543v 15.8548h 0.453543v -5.00677h 0.453543v 0.834461h 0.453543v 6.67569h 0.453543v
 -10.0135h 0.453543v 12.5169h 0.453543v -3.33785h 0.453543v 9.17908h 0.453543v -3.33785h 0.453543v -4.17231h 0.453543v 9.17908h 0.453543v -1.66892h 0.453543v 5.84123h 0.453543v -10.0135h 0.453543v 12.5169h 0.453543v -15.0203h 0.453543v 10.848h
 0.453543v 0.834461h 0.907087v 5.84123h 0.453543v 2.50338h 0.453543v -7.51015h 0.453543v 5.84123h 0.453543v -4.17231h 0.453543v 13.3514h 0.453543v -5.84123h 0.907087v -5.84123h 0.453543v 9.17908h 0.453543v 4.17231h 0.453543v -2.50338h 0.453543v
 -5.84123h 0.453543v -5.00677h 0.453543v 8.34461h 0.453543v 0.834461h 0.453543v 5.84123h 0.453543v -6.67569h 0.453543v 4.17231h 0.453543v 1.66892h 0.453543v -10.0135h 0.453543v 10.848h 0.453543v 5.00677h 0.453543v -8.34461h 0.453543v 10.0135h
 0.453543v -10.848h 0.453543v 13.3514h 0.453543v -13.3514h 0.453543v 2.50338h 0.453543v 4.17231h 0.453543v -5.84123h 0.453543v 3.33785h 0.453543v 6.67569h 0.453543v 1.66892h 0.453543v -12.5169h 0.453543v 6.67569h 0.453543v 1.66892h 0.453543v 5.84123h
 0.453543v -3.33785h 0.453543v 0.834461h 0.453543v -5.00677h 0.453543v 8.34461h 0.453543v -3.33785h 0.907087v 5.84123h 0.453543v -4.17231h 0.453543v 3.33785h 0.453543v -7.51015h 0.453543v 10.0135h 0.453543v -0.834461h 0.453543v -0.834461h 0.453543v
 1.66892h 0.453543v 3.33785h 0.453543v -7.51015h 0.453543v 2.50338h 0.453543v 0.834461h 0.453543v -1.66892h 0.453543v 3.33785h 0.453543v -0.834461h 0.453543v 1.66892h 0.453543v 1.66892h 0.453543v -1.66892h 0.453543v 3.33785h 0.453543v -2.50338h
 0.453543v -5.00677h 0.453543v 5.00677h 0.453543v -6.67569h 0.453543v 5.84123h 0.453543v 1.66892h 0.453543v -3.33785h 0.453543v -0.834461h 0.453543v 6.67569h 0.453543v -1.66892h 0.453543v -1.66892h 0.907087v -0.834461h 0.453543v 1.66892h 0.453543v
 -2.50338h 0.453543v 4.17231h 0.907087v -1.66892h 0.453543v 3.33785h 0.453543v -2.50338h 0.453543v -0.834461h 0.453543v 3.33785h 0.453543v -2.50338h 0.453543v 1.66892h 0.453543v 0.834461h 0.453543v -5.84123h 0.453543v 2.50338h 0.453543v -0.834461h
 0.453543v 6.67569h 0.453543v -2.50338h 0.453543v -0.834461h 0.453543v 1.66892h 0.453543v 1.66892h 0.453543v -4.17231h 0.453543v 2.50338h 0.453543v 0.834461h 0.907087v -2.50338h 0.907087v -0.834461h 0.453543v 3.33785h 0.453543v -2.50338h 0.907087v
 1.66892h 0.453543v 0.834461h 0.453543v -0.834461h 0.453543v 1.66892h 0.907087v -3.33785h 0.453543v 2.50338h 0.453543v 0.834461h 0.453543v 0.834461h 0.907087v -4.17231h 0.453543v 2.50338h 0.453543v 1.66892h 0.453543v -0.834461h 0.907087v 0.834461h
 0.453543v -2.50338h 0.453543v 0.834461h 0.453543v -1.66892h 0.453543v 3.33785h 0.907087v -0.834461h 0.453543v -0.834461h 0.453543v -0.834461h 0.453543v -0.834461h 0.453543v 2.50338h 0.453543v 0.834461h 0.453543v -1.66892h 0.453543v 1.66892h
 0.453543v -0.834461h 1.36063v 0.834461h 0.453543v -0.834461h 0.453543v 0.834461h 2.26772v -0.834461h 0.453543v 0.834461h 0.453543v -3.33785h 0.453543v 2.50338h 0.453543v 0.834461h 2.26772v -0.834461h 1.36063v 0.834461h 0.453543v -1.66892h 0.453543v
 0.834461h 0.907087v 0.834461h 0.453543v -0.834461h 0.453543v 0.834461h 0.453543v -0.834461h 0.453543v 0.834461h 0.907087v -1.66892h 0.453543v 0.834461h 0.453543v 0.834461h 0.453543v -2.50338h 0.453543v 1.66892h 0.453543v 0.834461h 0.453543v
 -1.66892h 0.453543v 1.66892h 1.36063v -0.834461h 0.453543v 0.834461h 9.52441v -0.834461h 0.453543v 0.834461h 2.26772v -0.834461h 1.81417v 0.834461h 1.36063v -1.66892h 0.453543v 1.66892h 8.61732v -0.834461h 0.453543v 0.834461h 0.453543v -0.834461h
 0.453543v 0.834461h 6.34961v -0.834461h 0.453543v 0.834461h 4.08189v -0.834461h 0.453543v 0.834461h 40.3654" fill="none" stroke="#000099"/>
<rect x="442.705" y="25.1301" width="113.386" height="61.8586" fill="white"/>
<path d="M442.705,86.9887h 113.386" fill="none" stroke="black"/>
<path d="M556.091,86.9887v -61.8586" fill="none" stroke="black"/>
<path d="M556.091,25.1301h -113.386" fill="none" stroke="black"/>
<path d="M442.705,25.1301v 61.8586" fill="none" stroke="black"/>
<text xml:space="preserve" x="482.958" y="37.3621" fill="black" font-size="13.5527" font-family="Helvetica">QHist</text>
<path d="M442.705,40.5947h 113.386" fill="none" stroke="black"/>
<text xml:space="preserve" x="448.033" y="51.982" fill="black" font-size="10.8845" font-family="Helvetica">Entries </text>
<text xml:space="preserve" x="517.884" y="51.982" fill="black" font-size="10.8845" font-family="Helvetica"> 71613</text>
<text xml:space="preserve" x="448.033" y="67.4142" fill="black" font-size="10.8845" font-family="Helvetica">Mean  </text>
<text xml:space="preserve" x="500.015" y="67.4142" fill="black" font-size="10.8845" font-family="Helvetica">1.238e+04</text>
<text xml:space="preserve" x="494.329" y="67.4142" fill="black" font-size="10.8845" font-family="Times">&#8722;</text>
<text xml:space="preserve" x="491.081" y="67.4142" fill="black" font-size="10.8845" font-family="Helvetica"> </text>
<text xml:space="preserve" x="448.033" y="82.8464" fill="black" font-size="10.8845" font-family="Helvetica">Std Dev   </text>
<text xml:space="preserve" x="519.508" y="82.8464" fill="black" font-size="10.8845" font-family="Helvetica">  116.1</text>
<path d="M57.1929,347.955h 453.543" fill="none" stroke="black"/>
<path d="M57.1929,338.676v 9.27879" fill="none" stroke="black"/>
<path d="M74.6369,343.315v 4.6394" fill="none" stroke="black"/>
<path d="M92.0809,343.315v 4.6394" fill="none" stroke="black"/>
<path d="M109.525,343.315v 4.6394" fill="none" stroke="black"/>
<path d="M126.969,338.676v 9.27879" fill="none" stroke="black"/>
<path d="M144.413,343.315v 4.6394" fill="none" stroke="black"/>
<path d="M161.857,343.315v 4.6394" fill="none" stroke="black"/>
<path d="M179.301,343.315v 4.6394" fill="none" stroke="black"/>
<path d="M196.745,338.676v 9.27879" fill="none" stroke="black"/>
<path d="M214.189,343.315v 4.6394" fill="none" stroke="black"/>
<path d="M231.633,343.315v 4.6394" fill="none" stroke="black"/>
<path d="M249.077,343.315v 4.6394" fill="none" stroke="black"/>
<path d="M266.521,338.676v 9.27879" fill="none" stroke="black"/>
<path d="M283.965,343.315v 4.6394" fill="none" stroke="black"/>
<path d="M301.409,343.315v 4.6394" fill="none" stroke="black"/>
<path d="M318.853,343.315v 4.6394" fill="none" stroke="black"/>
<path d="M336.296,338.676v 9.27879" fill="none" stroke="black"/>
<path d="M353.74,343.315v 4.6394" fill="none" stroke="black"/>
<path d="M371.184,343.315v 4.6394" fill="none" stroke="black"/>
<path d="M388.628,343.315v 4.6394" fill="none" stroke="black"/>
<path d="M406.072,338.676v 9.27879" fill="none" stroke="black"/>
<path d="M423.516,343.315v 4.6394" fill="none" stroke="black"/>
<path d="M440.96,343.315v 4.6394" fill="none" stroke="black"/>
<path d="M458.404,343.315v 4.6394" fill="none" stroke="black"/>
<path d="M475.848,338.676v 9.27879" fill="none" stroke="black"/>
<path d="M475.848,338.676v 9.27879" fill="none" stroke="black"/>
<path d="M493.292,343.315v 4.6394" fill="none" stroke="black"/>
<path d="M510.736,343.315v 4.6394" fill="none" stroke="black"/>
<text xml:space="preserve" x="41.9232" y="360.625" fill="black" font-size="12.9143" font-family="Helvetica">13000</text>
<text xml:space="preserve" x="34.6132" y="360.625" fill="black" font-size="12.9143" font-family="Times">&#8722;</text>
<text xml:space="preserve" x="111.774" y="360.625" fill="black" font-size="12.9143" font-family="Helvetica">12800</text>
<text xml:space="preserve" x="104.464" y="360.625" fill="black" font-size="12.9143" font-family="Times">&#8722;</text>
<text xml:space="preserve" x="181.625" y="360.625" fill="black" font-size="12.9143" font-family="Helvetica">12600</text>
<text xml:space="preserve" x="174.315" y="360.625" fill="black" font-size="12.9143" font-family="Times">&#8722;</text>
<text xml:space="preserve" x="251.476" y="360.625" fill="black" font-size="12.9143" font-family="Helvetica">12400</text>
<text xml:space="preserve" x="244.166" y="360.625" fill="black" font-size="12.9143" font-family="Times">&#8722;</text>
<text xml:space="preserve" x="321.327" y="360.625" fill="black" font-size="12.9143" font-family="Helvetica">12200</text>
<text xml:space="preserve" x="314.017" y="360.625" fill="black" font-size="12.9143" font-family="Times">&#8722;</text>
<text xml:space="preserve" x="391.178" y="360.625" fill="black" font-size="12.9143" font-family="Helvetica">12000</text>
<text xml:space="preserve" x="383.868" y="360.625" fill="black" font-size="12.9143" font-family="Times">&#8722;</text>
<text xml:space="preserve" x="461.028" y="360.625" fill="black" font-size="12.9143" font-family="Helvetica">11800</text>
<text xml:space="preserve" x="453.718" y="360.625" fill="black" font-size="12.9143" font-family="Times">&#8722;</text>
<text xml:space="preserve" x="405.797" y="373.621" fill="black" font-size="12.9143" font-family="Helvetica">Q Value (keV/c^2)</text>
<path d="M57.1929,347.955v -309.293" fill="none" stroke="black"/>
<path d="M70.7992,347.955h -13.6063" fill="none" stroke="black"/>
<path d="M63.9961,339.61h -6.80315" fill="none" stroke="black"/>
<path d="M63.9961,331.266h -6.80315" fill="none" stroke="black"/>
<path d="M63.9961,322.921h -6.80315" fill="none" stroke="black"/>
<path d="M63.9961,314.576h -6.80315" fill="none" stroke="black"/>
<path d="M70.7992,306.232h -13.6063" fill="none" stroke="black"/>
<path d="M63.9961,297.887h -6.80315" fill="none" stroke="black"/>
<path d="M63.9961,289.542h -6.80315" fill="none" stroke="black"/>
<path d="M63.9961,281.198h -6.80315" fill="none" stroke="black"/>
<path d="M63.9961,272.853h -6.80315" fill="none" stroke="black"/>
<path d="M70.7992,264.509h -13.6063" fill="none" stroke="black"/>
<path d="M63.9961,256.164h -6.80315" fill="none" stroke="black"/>
<path d="M63.9961,247.819h -6.80315" fill="none" stroke="black"/>
<path d="M63.9961,239.475h -6.80315" fill="none" stroke="black"/>
<path d="M63.9961,231.13h -6.80315" fill="none" stroke="black"/>
<path d="M70.7992,222.786h -13.6063" fill="none" stroke="black"/>
<path d="M63.9961,214.441h -6.80315" fill="none" stroke="black"/>
<path d="M63.9961,206.096h -6.80315" fill="none" stroke="black"/>
<path d="M63.9961,197.752h -6.80315" fill="none" stroke="black"/>
<path d="M63.9961,189.407h -6.80315" fill="none" stroke="black"/>
<path d="M70.7992,181.062h -13.6063" fill="none" stroke="black"/>
<path d="M63.9961,172.718h -6.80315" fill="none" stroke="black"/>
<path d="M63.9961,164.373h -6.80315" fill="none" stroke="black"/>
<path d="M63.9961,156.029h -6.80315" fill="none" stroke="black"/>
<path d="M63.9961,147.684h -6.80315" fill="none" stroke="black"/>
<path d="M70.7992,139.339h -13.6063" fill="none" stroke="black"/>
<path d="M63.9961,130.995h -6.80315" fill="none" stroke="black"/>
<path d="M63.9961,122.65h -6.80315" fill="none" stroke="black"/>
<path d="M63.9961,114.306h -6.80315" fill="none" stroke="black"/>
<path d="M63.9961,105.961h -6.80315" fill="none" stroke="black"/>
<path d="M70.7992,97.6163h -13.6063" fill="none" stroke="black"/>
<path d="M63.9961,89.2717h -6.80315" fill="none" stroke="black"/>
<path d="M63.9961,80.9271h -6.80315" fill="none" stroke="black"/>
<path d="M63.9961,72.5825h -6.80315" fill="none" stroke="black"/>
<path d="M63.9961,64.2379h -6.80315" fill="none" stroke="black"/>
<path d="M70.7992,55.8933h -13.6063" fill="none" stroke="black"/>
<path d="M70.7992,55.8933h -13.6063" fill="none" stroke="black"/>
<path d="M63.9961,47.5487h -6.80315" fill="none" stroke="black"/>
<path d="M63.9961,39.204h -6.80315" fill="none" stroke="black"/>
<text xml:space="preserve" x="46.7965" y="352.503" fill="black" font-size="12.9143" font-family="Helvetica">0</text>
<text xml:space="preserve" x="39.4865" y="311.08" fill="black" font-size="12.9143" font-family="Helvetica">50</text>
<text xml:space="preserve" x="32.9888" y="268.845" fill="black" font-size="12.9143" font-family="Helvetica">100</text>
<text xml:space="preserve" x="32.9888" y="227.421" fill="black" font-size="12.9143" font-family="Helvetica">150</text>
<text xml:space="preserve" x="32.9888" y="185.186" fill="black" font-size="12.9143" font-family="Helvetica">200</text>
<text xml:space="preserve" x="32.9888" y="143.763" fill="black" font-size="12.9143" font-family="Helvetica">250</text>
<text xml:space="preserve" x="32.9888" y="102.34" fill="black" font-size="12.9143" font-family="Helvetica">300</text>
<text xml:space="preserve" x="32.9888" y="60.1042" fill="black" font-size="12.9143" font-family="Helvetica">350</text>
<g transform="rotate(-90,19.181,99.903)">
<text xml:space="preserve" x="19.181" y="99.903" fill="black" font-size="12.9143" font-family="Helvetica">Frequency</text>
</g>
<rect x="442.705" y="25.1301" width="113.386" height="61.8586" fill="white"/>
<path d="M442.705,86.9887h 113.386" fill="none" stroke="black"/>
<path d="M556.091,86.9887v -61.8586" fill="none" stroke="black"/>
<path d="M556.091,25.1301h -113.386" fill="none" stroke="black"/>
<path d="M442.705,25.1301v 61.8586" fill="none" stroke="black"/>
<text xml:space="preserve" x="482.958" y="37.3621" fill="black" font-size="13.5527" font-family="Helvetica">QHist</text>
<path d="M442.705,40.5947h 113.386" fill="none" stroke="black"/>
<text xml:space="preserve" x="448.033" y="51.982" fill="black" font-size="10.8845" font-family="Helvetica">Entries </text>
<text xml:space="preserve" x="517.884" y="51.982" fill="black" font-size="10.8845" font-family="Helvetica"> 71613</text>
<text xml:space="preserve" x="448.033" y="67.4142" fill="black" font-size="10.8845" font-family="Helvetica">Mean  </text>
<text xml:space="preserve" x="500.015" y="67.4142" fill="black" font-size="10.8845" font-family="Helvetica">1.238e+04</text>
<text xml:space="preserve" x="494.329" y="67.4142" fill="black" font-size="10.8845" font-family="Times">&#8722;</text>
<text xml:space="preserve" x="491.081" y="67.4142" fill="black" font-size="10.8845" font-family="Helvetica"> </text>
<text xml:space="preserve" x="448.033" y="82.8464" fill="black" font-size="10.8845" font-family="Helvetica">Std Dev   </text>
<text xml:space="preserve" x="519.508" y="82.8464" fill="black" font-size="10.8845" font-family="Helvetica">  116.1</text>
<text xml:space="preserve" x="253.1" y="18.681" fill="black" font-size="17.0819" font-family="Helvetica">Q Value</text></svg>
