<?xml version="1.0" standalone="no"?>
<svg width="567.429" height="353.473" viewBox="0 0 567.429 353.473" xmlns="http://www.w3.org/2000/svg" shape-rendering="crispEdges">
<title>
/home/local1/eclipse-workspace/Dev/Geant4-Development/Results/QValueMk1.svg
</title>
<desc>
Creator: ROOT Version 6.18/04
CreationDate: Wed Apr 19 14:15:07 2023</desc>
<defs>
</defs>
<rect x="0.5" y="0" width="566.929" height="352.973" fill="white"/>
<rect x="57.1929" y="35.2973" width="453.543" height="282.379" fill="white"/>
<rect x="57.1929" y="35.2973" width="453.543" height="282.379" fill="none" stroke="black"/>
<rect x="57.1929" y="35.2973" width="453.543" height="282.379" fill="white"/>
<rect x="57.1929" y="35.2973" width="453.543" height="282.379" fill="none" stroke="black"/>
<path d="M57.1929,317.676h 1.36063v -0.98872h 0.453543v 0.98872h 9.07087v -0.98872h 0.453543v 0.98872h 3.62835v -0.98872h 0.453543v 0.98872h 4.53543v -0.98872h 0.453543v 0.98872h 0.907087v -0.98872h 0.453543v 0.98872h 4.53543v -0.98872h 0.907087v
 0.98872h 0.907087v -0.98872h 0.907087v 0.98872h 3.62835v -0.98872h 0.453543v 0.98872h 1.36063v -0.98872h 0.907087v 0.98872h 0.907087v -0.98872h 1.36063v -0.98872h 0.453543v 1.97744h 0.453543v -0.98872h 0.907087v 0.98872h 0.453543v -0.98872h
 0.907087v -0.98872h 0.453543v 1.97744h 3.62835v -0.98872h 0.453543v 0.98872h 0.907087v -0.98872h 0.907087v 0.98872h 0.907087v -0.98872h 0.453543v 0.98872h 1.36063v -0.98872h 1.36063v -0.98872h 0.453543v 0.98872h 0.907087v 0.98872h 3.1748v -2.96616h
 0.453543v 2.96616h 0.907087v -0.98872h 0.453543v 0.98872h 0.907087v -0.98872h 0.453543v -0.98872h 0.453543v 1.97744h 0.453543v -1.97744h 0.907087v 0.98872h 2.72126v 0.98872h 0.453543v -1.97744h 0.453543v 0.98872h 0.907087v -2.96616h 0.453543v
 2.96616h 0.453543v -0.98872h 0.453543v 0.98872h 0.453543v 0.98872h 0.453543v -0.98872h 0.453543v -1.97744h 0.453543v -1.97744h 0.453543v 2.96616h 0.453543v 0.98872h 0.453543v -2.96616h 0.453543v 2.96616h 0.453543v -3.95488h 0.453543v 0.98872h
 0.453543v 1.97744h 0.453543v -0.98872h 0.453543v -0.98872h 0.453543v 2.96616h 0.453543v -0.98872h 0.453543v -0.98872h 0.453543v -4.9436h 0.453543v 4.9436h 0.453543v 0.98872h 0.907087v -0.98872h 0.453543v -0.98872h 0.453543v 2.96616h 0.453543v
 -7.90976h 0.453543v 3.95488h 0.453543v 2.96616h 0.453543v -0.98872h 0.453543v -0.98872h 0.453543v 2.96616h 0.453543v -2.96616h 0.453543v 2.96616h 0.453543v -0.98872h 0.453543v -3.95488h 0.907087v 0.98872h 0.453543v 0.98872h 0.453543v -0.98872h
 0.453543v 1.97744h 0.907087v -8.89848h 0.453543v 8.89848h 0.453543v 0.98872h 0.453543v -2.96616h 0.907087v 0.98872h 0.453543v -3.95488h 0.907087v 3.95488h 0.907087v -0.98872h 0.907087v -1.97744h 0.453543v -1.97744h 0.453543v 1.97744h 0.453543v
 0.98872h 0.453543v 0.98872h 0.453543v -6.92104h 0.453543v 5.93232h 0.453543v -2.96616h 0.453543v -2.96616h 0.453543v 1.97744h 0.907087v 0.98872h 0.453543v -1.97744h 0.453543v -0.98872h 0.453543v -3.95488h 0.453543v 0.98872h 0.453543v 1.97744h
 0.453543v 0.98872h 0.453543v 2.96616h 0.453543v -5.93232h 0.907087v 3.95488h 0.453543v -5.93232h 0.453543v 4.9436h 0.453543v -3.95488h 0.453543v 2.96616h 0.453543v 6.92104h 0.453543v -8.89848h 0.453543v -3.95488h 0.453543v 3.95488h 0.453543v
 -4.9436h 0.453543v 4.9436h 0.453543v -2.96616h 0.453543v 5.93232h 0.453543v -6.92104h 0.453543v 3.95488h 0.453543v -4.9436h 0.453543v 7.90976h 0.453543v -1.97744h 0.453543v -7.90976h 0.453543v 6.92104h 0.453543v -4.9436h 0.453543v -3.95488h
 0.453543v 0.98872h 0.453543v 0.98872h 0.453543v -6.92104h 0.453543v 6.92104h 0.453543v -1.97744h 0.453543v 2.96616h 0.453543v -4.9436h 0.453543v 4.9436h 0.453543v -4.9436h 0.907087v 2.96616h 0.453543v -2.96616h 0.453543v 0.98872h 0.453543v 3.95488h
 0.453543v -7.90976h 0.453543v -5.93232h 0.453543v 7.90976h 0.453543v -7.90976h 0.453543v 5.93232h 0.453543v 3.95488h 0.453543v 3.95488h 0.453543v -4.9436h 0.453543v -14.8308h 0.453543v 11.8646h 0.453543v 0.98872h 0.453543v -5.93232h 0.453543v
 -6.92104h 0.453543v 4.9436h 0.453543v -8.89848h 0.453543v 15.8195h 0.453543v -16.8082h 0.453543v 3.95488h 0.453543v 6.92104h 0.453543v -12.8534h 0.453543v 2.96616h 0.453543v 1.97744h 0.453543v 2.96616h 0.453543v -4.9436h 0.453543v 1.97744h 0.453543v
 0.98872h 0.453543v -9.8872h 0.453543v 12.8534h 0.453543v -0.98872h 0.453543v -10.8759h 0.453543v 1.97744h 0.453543v -6.92104h 0.907087v 1.97744h 0.453543v -1.97744h 0.453543v 7.90976h 0.453543v -4.9436h 0.453543v -4.9436h 0.453543v 2.96616h
 0.453543v 3.95488h 0.453543v -2.96616h 0.453543v 4.9436h 0.453543v -11.8646h 0.453543v -3.95488h 0.453543v 6.92104h 0.453543v -18.7857h 0.453543v 18.7857h 0.453543v -10.8759h 0.453543v 9.8872h 0.453543v -4.9436h 0.453543v -9.8872h 0.453543v 9.8872h
 0.453543v -3.95488h 0.453543v 0.98872h 0.453543v -0.98872h 0.453543v -18.7857h 0.453543v 13.8421h 0.453543v 0.98872h 0.453543v -9.8872h 0.453543v -3.95488h 0.453543v -2.96616h 0.453543v -5.93232h 0.453543v 19.7744h 0.453543v -12.8534h 0.453543v
 -6.92104h 0.453543v -14.8308h 0.453543v 31.639h 0.453543v -7.90976h 0.453543v -23.7293h 0.453543v 10.8759h 0.453543v -8.89848h 0.453543v 6.92104h 0.453543v 20.7631h 0.453543v -13.8421h 0.453543v -23.7293h 0.907087v 18.7857h 0.453543v -3.95488h
 0.453543v -0.98872h 0.453543v -13.8421h 0.453543v 12.8534h 0.453543v 1.97744h 0.453543v -0.98872h 0.453543v -15.8195h 0.453543v 0.98872h 0.453543v 6.92104h 0.453543v -18.7857h 0.453543v -6.92104h 0.453543v 10.8759h 0.453543v 7.90976h 0.453543v
 -13.8421h 0.453543v -5.93232h 0.453543v 10.8759h 0.907087v 9.8872h 0.453543v -42.515h 0.453543v 43.5037h 0.453543v -16.8082h 0.453543v 12.8534h 0.453543v -3.95488h 0.453543v -14.8308h 0.453543v 2.96616h 0.453543v -3.95488h 0.453543v 6.92104h
 0.453543v -4.9436h 0.453543v -8.89848h 0.453543v 13.8421h 0.453543v -31.639h 0.453543v 1.97744h 0.453543v 2.96616h 0.453543v 19.7744h 0.453543v -9.8872h 0.453543v -0.98872h 0.453543v 0.98872h 0.907087v 8.89848h 0.453543v -9.8872h 0.453543v -12.8534h
 0.453543v -1.97744h 0.907087v 17.797h 0.453543v -21.7518h 0.453543v 2.96616h 0.453543v -5.93232h 0.453543v 8.89848h 0.453543v 4.9436h 0.453543v 18.7857h 0.453543v -50.4247h 0.453543v 41.5262h 0.453543v -35.5939h 0.453543v -14.8308h 0.453543v
 41.5262h 0.453543v -24.718h 0.453543v -8.89848h 0.453543v 2.96616h 0.907087v 7.90976h 0.453543v -4.9436h 0.453543v 7.90976h 0.453543v -11.8646h 0.453543v 12.8534h 0.453543v -23.7293h 0.453543v 4.9436h 0.453543v -10.8759h 0.453543v 7.90976h 0.453543v
 -12.8534h 0.453543v 17.797h 0.453543v -39.5488h 0.453543v 26.6954h 0.453543v -1.97744h 0.453543v -4.9436h 0.453543v -2.96616h 0.453543v 24.718h 0.907087v 0.98872h 0.453543v -20.7631h 0.453543v -1.97744h 0.453543v 3.95488h 0.453543v -12.8534h
 0.453543v 17.797h 0.453543v 12.8534h 0.453543v -7.90976h 0.453543v -29.6616h 0.453543v 17.797h 0.453543v 5.93232h 0.453543v 1.97744h 0.453543v -17.797h 0.453543v 4.9436h 0.453543v -3.95488h 0.453543v -16.8082h 0.453543v 14.8308h 0.453543v 28.6729h
 0.453543v -41.5262h 0.453543v 9.8872h 0.453543v -1.97744h 0.453543v 15.8195h 0.453543v 8.89848h 0.453543v -27.6842h 0.453543v 31.639h 0.453543v -27.6842h 0.453543v -12.8534h 0.453543v 20.7631h 0.453543v 3.95488h 0.453543v 23.7293h 0.453543v -24.718h
 0.453543v -21.7518h 0.453543v -26.6954h 0.453543v 32.6278h 0.453543v -12.8534h 0.453543v -7.90976h 0.453543v -17.797h 0.453543v 29.6616h 0.453543v -2.96616h 0.453543v 19.7744h 0.453543v -17.797h 0.453543v 16.8082h 0.453543v 19.7744h 0.453543v
 -32.6278h 0.453543v -28.6729h 0.453543v 29.6616h 0.453543v -23.7293h 0.453543v 16.8082h 0.453543v -0.98872h 0.453543v -5.93232h 0.453543v 19.7744h 0.453543v -11.8646h 0.453543v -3.95488h 0.453543v 12.8534h 0.453543v -6.92104h 0.453543v -2.96616h
 0.453543v -9.8872h 0.453543v -6.92104h 0.453543v 17.797h 0.453543v 1.97744h 0.453543v -8.89848h 0.453543v 22.7406h 0.453543v -5.93232h 0.453543v -18.7857h 0.453543v -7.90976h 0.453543v 24.718h 0.453543v -7.90976h 0.453543v -5.93232h 0.453543v
 0.98872h 0.453543v 9.8872h 0.453543v -23.7293h 0.453543v 0.98872h 0.453543v 37.5714h 0.453543v -32.6278h 0.453543v 33.6165h 0.453543v 18.7857h 0.453543v -63.2781h 0.453543v 47.4586h 0.453543v -44.4924h 0.453543v 41.5262h 0.453543v -21.7518h
 0.453543v 7.90976h 0.453543v 4.9436h 0.453543v -11.8646h 0.453543v 21.7518h 0.453543v -25.7067h 0.453543v 39.5488h 0.453543v -33.6165h 0.453543v 16.8082h 0.907087v -1.97744h 0.453543v 5.93232h 0.453543v -6.92104h 0.453543v -6.92104h 0.453543v
 -26.6954h 0.453543v 35.5939h 0.453543v -15.8195h 0.453543v -16.8082h 0.453543v 30.6503h 0.453543v -18.7857h 0.453543v 19.7744h 0.453543v -5.93232h 0.453543v 25.7067h 0.453543v 2.96616h 0.907087v -26.6954h 0.453543v 6.92104h 0.453543v -0.98872h
 0.453543v -9.8872h 0.453543v -1.97744h 0.453543v -5.93232h 0.453543v 9.8872h 0.453543v -15.8195h 0.453543v 9.8872h 0.453543v 7.90976h 0.453543v -14.8308h 0.453543v 49.436h 0.453543v -14.8308h 0.453543v -25.7067h 0.453543v 19.7744h 0.453543v 2.96616h
 0.453543v -8.89848h 0.453543v -24.718h 0.453543v 25.7067h 0.453543v 1.97744h 0.453543v -25.7067h 0.453543v 57.3458h 0.453543v -32.6278h 0.453543v -7.90976h 0.453543v 32.6278h 0.453543v 9.8872h 0.453543v -16.8082h 0.453543v -3.95488h 0.453543v
 -17.797h 0.453543v 32.6278h 0.453543v -4.9436h 0.453543v -2.96616h 0.453543v 8.89848h 0.453543v -12.8534h 0.453543v -0.98872h 0.453543v -20.7631h 0.453543v 10.8759h 0.453543v -1.97744h 0.453543v 11.8646h 0.453543v -9.8872h 0.453543v -16.8082h
 0.453543v 26.6954h 0.453543v 23.7293h 0.453543v 1.97744h 0.453543v -15.8195h 0.453543v 2.96616h 0.453543v 5.93232h 0.453543v -5.93232h 0.453543v 15.8195h 0.453543v -19.7744h 0.453543v 17.797h 0.453543v -0.98872h 0.453543v 8.89848h 0.453543v
 -18.7857h 0.453543v -2.96616h 0.453543v 23.7293h 0.907087v -4.9436h 0.453543v -8.89848h 0.453543v -13.8421h 0.453543v 9.8872h 0.453543v -7.90976h 0.453543v 29.6616h 0.453543v -36.5826h 0.453543v 38.5601h 0.453543v -16.8082h 0.453543v -15.8195h
 0.453543v 3.95488h 0.453543v 20.7631h 0.453543v 5.93232h 0.453543v -2.96616h 0.453543v 4.9436h 0.453543v -0.98872h 0.453543v 4.9436h 0.907087v -29.6616h 0.453543v 25.7067h 0.453543v 9.8872h 0.453543v -5.93232h 0.453543v -0.98872h 0.453543v -0.98872h
 0.453543v 0.98872h 0.453543v 26.6954h 0.453543v -11.8646h 0.453543v -4.9436h 0.453543v 5.93232h 0.453543v -5.93232h 0.453543v -5.93232h 0.453543v 10.8759h 0.453543v -2.96616h 0.453543v 18.7857h 0.453543v -14.8308h 0.453543v -13.8421h 0.453543v
 14.8308h 0.453543v -0.98872h 0.453543v -11.8646h 0.453543v 4.9436h 0.453543v 6.92104h 0.453543v 18.7857h 0.453543v -8.89848h 0.453543v 8.89848h 0.453543v -16.8082h 0.453543v 3.95488h 0.453543v 12.8534h 0.453543v 9.8872h 0.453543v -18.7857h 0.453543v
 14.8308h 0.453543v 8.89848h 0.453543v -35.5939h 0.453543v 28.6729h 0.453543v 3.95488h 0.453543v -2.96616h 0.907087v -11.8646h 0.453543v 14.8308h 0.453543v -28.6729h 0.453543v 16.8082h 0.453543v 12.8534h 0.453543v 2.96616h 0.453543v -1.97744h
 0.453543v -13.8421h 0.453543v 9.8872h 0.453543v 1.97744h 0.453543v -2.96616h 0.453543v -6.92104h 0.453543v 10.8759h 0.453543v 5.93232h 0.453543v -10.8759h 0.453543v 23.7293h 0.453543v -15.8195h 0.453543v 12.8534h 0.453543v -11.8646h 0.453543v
 12.8534h 0.453543v 1.97744h 0.453543v 0.98872h 0.453543v -7.90976h 0.453543v 5.93232h 0.453543v -0.98872h 0.453543v -7.90976h 0.453543v 9.8872h 0.453543v 9.8872h 0.453543v -1.97744h 0.453543v -7.90976h 0.453543v -4.9436h 0.453543v 18.7857h 0.453543v
 -23.7293h 0.453543v 25.7067h 0.453543v -20.7631h 0.453543v 28.6729h 0.453543v -5.93232h 0.453543v 7.90976h 0.453543v -16.8082h 0.453543v 14.8308h 0.453543v -3.95488h 0.453543v 0.98872h 0.453543v 4.9436h 0.453543v 4.9436h 0.453543v -7.90976h
 0.453543v 5.93232h 0.453543v -4.9436h 0.453543v 15.8195h 0.453543v -21.7518h 0.453543v 1.97744h 0.453543v 1.97744h 0.453543v 3.95488h 0.453543v 0.98872h 0.453543v 15.8195h 0.453543v -0.98872h 0.453543v -12.8534h 0.453543v -2.96616h 0.453543v
 -1.97744h 0.453543v 14.8308h 0.453543v -11.8646h 0.453543v 13.8421h 0.453543v -3.95488h 0.453543v -12.8534h 0.453543v 9.8872h 0.453543v 0.98872h 0.453543v 2.96616h 0.453543v 10.8759h 0.453543v -7.90976h 0.453543v -2.96616h 0.453543v 9.8872h
 0.453543v -14.8308h 0.453543v 15.8195h 0.453543v -1.97744h 0.453543v 0.98872h 0.453543v 1.97744h 0.453543v 8.89848h 0.453543v -15.8195h 0.453543v 9.8872h 0.453543v -0.98872h 0.453543v 6.92104h 0.907087v -2.96616h 0.453543v -6.92104h 0.453543v
 -1.97744h 0.453543v -0.98872h 0.453543v -5.93232h 0.453543v 23.7293h 0.453543v 2.96616h 0.453543v -13.8421h 0.453543v 1.97744h 0.453543v -0.98872h 0.453543v 2.96616h 0.453543v -10.8759h 0.453543v 19.7744h 0.453543v -13.8421h 0.453543v 0.98872h
 0.453543v 4.9436h 0.453543v 3.95488h 0.453543v -0.98872h 0.453543v 6.92104h 0.453543v -3.95488h 0.453543v -0.98872h 0.453543v 6.92104h 0.453543v -5.93232h 0.453543v 2.96616h 0.453543v -9.8872h 0.453543v 4.9436h 0.453543v 1.97744h 0.453543v 1.97744h
 0.453543v 2.96616h 0.453543v -2.96616h 0.907087v -13.8421h 0.453543v 10.8759h 0.453543v -7.90976h 0.453543v 18.7857h 0.453543v -1.97744h 0.453543v -4.9436h 0.453543v -1.97744h 0.907087v 1.97744h 0.453543v 5.93232h 0.453543v 2.96616h 0.453543v
 -11.8646h 0.453543v 5.93232h 0.453543v 2.96616h 0.453543v 0.98872h 0.453543v -5.93232h 0.453543v 0.98872h 0.453543v 3.95488h 0.453543v -1.97744h 0.453543v -3.95488h 0.453543v 3.95488h 0.453543v -1.97744h 0.453543v 3.95488h 0.453543v 0.98872h
 0.453543v 8.89848h 0.453543v -9.8872h 0.453543v -2.96616h 0.453543v 1.97744h 0.453543v -0.98872h 0.453543v 6.92104h 0.453543v -7.90976h 0.453543v 1.97744h 0.907087v 1.97744h 0.453543v 3.95488h 0.907087v -2.96616h 0.453543v 6.92104h 0.453543v
 0.98872h 0.453543v -7.90976h 0.453543v 4.9436h 0.453543v -1.97744h 0.453543v 2.96616h 0.453543v 3.95488h 0.453543v -5.93232h 0.453543v -7.90976h 0.453543v 10.8759h 0.453543v 0.98872h 0.453543v -1.97744h 0.453543v -2.96616h 0.453543v 6.92104h
 0.453543v -10.8759h 0.453543v 7.90976h 0.453543v -0.98872h 0.453543v 4.9436h 0.453543v -0.98872h 0.453543v -4.9436h 0.453543v 4.9436h 0.907087v -5.93232h 0.453543v -0.98872h 0.453543v 5.93232h 0.453543v -0.98872h 0.453543v -2.96616h 0.453543v
 2.96616h 0.453543v -1.97744h 0.453543v 8.89848h 0.453543v -10.8759h 0.453543v 2.96616h 0.453543v 0.98872h 0.453543v 1.97744h 0.453543v -2.96616h 0.453543v 2.96616h 0.453543v -0.98872h 0.453543v -2.96616h 0.453543v 3.95488h 0.453543v -5.93232h
 0.453543v 3.95488h 0.907087v 6.92104h 0.453543v -4.9436h 0.453543v -2.96616h 0.453543v -0.98872h 0.453543v 3.95488h 0.453543v -2.96616h 0.453543v -0.98872h 0.453543v 4.9436h 0.907087v -1.97744h 0.453543v 3.95488h 0.453543v -1.97744h 0.453543v
 1.97744h 0.907087v -0.98872h 0.907087v 1.97744h 1.36063v 0.98872h 0.907087v -0.98872h 1.36063v -1.97744h 0.453543v 0.98872h 0.453543v 1.97744h 0.453543v 0.98872h 0.453543v -2.96616h 0.907087v 0.98872h 0.453543v 0.98872h 0.453543v -0.98872h 0.453543v
 2.96616h 0.453543v -2.96616h 0.453543v 0.98872h 0.453543v 0.98872h 0.907087v -3.95488h 0.907087v 3.95488h 0.453543v -1.97744h 0.907087v 1.97744h 0.453543v -1.97744h 0.453543v 0.98872h 0.453543v -0.98872h 0.453543v 2.96616h 0.453543v -6.92104h
 0.453543v 0.98872h 0.453543v 2.96616h 0.453543v -0.98872h 0.907087v 1.97744h 0.453543v 1.97744h 0.453543v -1.97744h 0.453543v 0.98872h 0.453543v -1.97744h 0.907087v 1.97744h 0.453543v -3.95488h 0.453543v 3.95488h 0.453543v -0.98872h 0.907087v
 -0.98872h 0.453543v 0.98872h 0.453543v 1.97744h 0.453543v -1.97744h 0.453543v 0.98872h 0.453543v -0.98872h 0.453543v -0.98872h 0.453543v 2.96616h 0.453543v -0.98872h 0.907087v -0.98872h 0.453543v 1.97744h 0.453543v -1.97744h 0.453543v -0.98872h
 0.453543v 2.96616h 0.453543v -1.97744h 0.453543v 1.97744h 1.81417v -0.98872h 0.453543v 0.98872h 0.453543v -0.98872h 0.453543v 0.98872h 1.36063v -1.97744h 0.453543v 1.97744h 0.453543v -0.98872h 0.907087v 0.98872h 1.81417v -0.98872h 0.453543v
 -0.98872h 0.453543v 1.97744h 1.36063v -0.98872h 0.453543v 0.98872h 0.453543v -0.98872h 0.453543v -0.98872h 0.453543v 0.98872h 0.453543v 0.98872h 1.81417v -0.98872h 0.907087v 0.98872h 10.885v -0.98872h 0.453543v 0.98872h 19.0488" fill="none"
 stroke="#000099"/>
<rect x="442.705" y="22.9433" width="113.386" height="56.4757" fill="white"/>
<path d="M442.705,79.419h 113.386" fill="none" stroke="black"/>
<path d="M556.091,79.419v -56.4757" fill="none" stroke="black"/>
<path d="M556.091,22.9433h -113.386" fill="none" stroke="black"/>
<path d="M442.705,22.9433v 56.4757" fill="none" stroke="black"/>
<text xml:space="preserve" x="483.802" y="34.7543" fill="black" font-size="12.4169" font-family="Helvetica">QHist</text>
<path d="M442.705,37.0622h 113.386" fill="none" stroke="black"/>
<text xml:space="preserve" x="447.961" y="47.7871" fill="black" font-size="10.7942" font-family="Helvetica">Entries </text>
<text xml:space="preserve" x="516.384" y="47.7871" fill="black" font-size="10.7942" font-family="Helvetica"> 71613</text>
<text xml:space="preserve" x="447.961" y="61.9061" fill="black" font-size="10.7942" font-family="Helvetica">Mean  </text>
<text xml:space="preserve" x="497.921" y="61.9061" fill="black" font-size="10.7942" font-family="Helvetica">1.441e+04</text>
<text xml:space="preserve" x="491.404" y="61.9061" fill="black" font-size="10.7942" font-family="Times">&#8722;</text>
<text xml:space="preserve" x="488.146" y="61.9061" fill="black" font-size="10.7942" font-family="Helvetica"> </text>
<text xml:space="preserve" x="447.961" y="76.025" fill="black" font-size="10.7942" font-family="Helvetica">Std Dev   </text>
<text xml:space="preserve" x="516.384" y="76.025" fill="black" font-size="10.7942" font-family="Helvetica">  224.9</text>
<path d="M57.1929,317.676h 453.543" fill="none" stroke="black"/>
<path d="M95.6526,309.204v 8.47135" fill="none" stroke="black"/>
<path d="M107.378,313.44v 4.23568" fill="none" stroke="black"/>
<path d="M119.104,313.44v 4.23568" fill="none" stroke="black"/>
<path d="M130.829,313.44v 4.23568" fill="none" stroke="black"/>
<path d="M142.555,309.204v 8.47135" fill="none" stroke="black"/>
<path d="M154.28,313.44v 4.23568" fill="none" stroke="black"/>
<path d="M166.006,313.44v 4.23568" fill="none" stroke="black"/>
<path d="M177.731,313.44v 4.23568" fill="none" stroke="black"/>
<path d="M189.457,309.204v 8.47135" fill="none" stroke="black"/>
<path d="M201.182,313.44v 4.23568" fill="none" stroke="black"/>
<path d="M212.908,313.44v 4.23568" fill="none" stroke="black"/>
<path d="M224.633,313.44v 4.23568" fill="none" stroke="black"/>
<path d="M236.359,309.204v 8.47135" fill="none" stroke="black"/>
<path d="M248.084,313.44v 4.23568" fill="none" stroke="black"/>
<path d="M259.81,313.44v 4.23568" fill="none" stroke="black"/>
<path d="M271.536,313.44v 4.23568" fill="none" stroke="black"/>
<path d="M283.261,309.204v 8.47135" fill="none" stroke="black"/>
<path d="M294.987,313.44v 4.23568" fill="none" stroke="black"/>
<path d="M306.712,313.44v 4.23568" fill="none" stroke="black"/>
<path d="M318.438,313.44v 4.23568" fill="none" stroke="black"/>
<path d="M330.163,309.204v 8.47135" fill="none" stroke="black"/>
<path d="M341.889,313.44v 4.23568" fill="none" stroke="black"/>
<path d="M353.614,313.44v 4.23568" fill="none" stroke="black"/>
<path d="M365.34,313.44v 4.23568" fill="none" stroke="black"/>
<path d="M377.065,309.204v 8.47135" fill="none" stroke="black"/>
<path d="M388.791,313.44v 4.23568" fill="none" stroke="black"/>
<path d="M400.516,313.44v 4.23568" fill="none" stroke="black"/>
<path d="M412.242,313.44v 4.23568" fill="none" stroke="black"/>
<path d="M423.967,309.204v 8.47135" fill="none" stroke="black"/>
<path d="M435.693,313.44v 4.23568" fill="none" stroke="black"/>
<path d="M447.418,313.44v 4.23568" fill="none" stroke="black"/>
<path d="M459.144,313.44v 4.23568" fill="none" stroke="black"/>
<path d="M470.869,309.204v 8.47135" fill="none" stroke="black"/>
<path d="M95.6526,309.204v 8.47135" fill="none" stroke="black"/>
<path d="M83.9271,313.44v 4.23568" fill="none" stroke="black"/>
<path d="M72.2016,313.44v 4.23568" fill="none" stroke="black"/>
<path d="M60.4761,313.44v 4.23568" fill="none" stroke="black"/>
<path d="M470.869,309.204v 8.47135" fill="none" stroke="black"/>
<path d="M482.595,313.44v 4.23568" fill="none" stroke="black"/>
<path d="M494.32,313.44v 4.23568" fill="none" stroke="black"/>
<path d="M506.046,313.44v 4.23568" fill="none" stroke="black"/>
<text xml:space="preserve" x="80.8693" y="329.08" fill="black" font-size="11.834" font-family="Helvetica">15200</text>
<text xml:space="preserve" x="74.3528" y="329.08" fill="black" font-size="11.834" font-family="Times">&#8722;</text>
<text xml:space="preserve" x="127.57" y="329.08" fill="black" font-size="11.834" font-family="Helvetica">15000</text>
<text xml:space="preserve" x="121.054" y="329.08" fill="black" font-size="11.834" font-family="Times">&#8722;</text>
<text xml:space="preserve" x="174.271" y="329.08" fill="black" font-size="11.834" font-family="Helvetica">14800</text>
<text xml:space="preserve" x="167.755" y="329.08" fill="black" font-size="11.834" font-family="Times">&#8722;</text>
<text xml:space="preserve" x="222.059" y="329.08" fill="black" font-size="11.834" font-family="Helvetica">14600</text>
<text xml:space="preserve" x="215.542" y="329.08" fill="black" font-size="11.834" font-family="Times">&#8722;</text>
<text xml:space="preserve" x="268.76" y="329.08" fill="black" font-size="11.834" font-family="Helvetica">14400</text>
<text xml:space="preserve" x="262.243" y="329.08" fill="black" font-size="11.834" font-family="Times">&#8722;</text>
<text xml:space="preserve" x="315.461" y="329.08" fill="black" font-size="11.834" font-family="Helvetica">14200</text>
<text xml:space="preserve" x="308.944" y="329.08" fill="black" font-size="11.834" font-family="Times">&#8722;</text>
<text xml:space="preserve" x="362.162" y="329.08" fill="black" font-size="11.834" font-family="Helvetica">14000</text>
<text xml:space="preserve" x="355.645" y="329.08" fill="black" font-size="11.834" font-family="Times">&#8722;</text>
<text xml:space="preserve" x="408.863" y="329.08" fill="black" font-size="11.834" font-family="Helvetica">13800</text>
<text xml:space="preserve" x="402.346" y="329.08" fill="black" font-size="11.834" font-family="Times">&#8722;</text>
<text xml:space="preserve" x="456.65" y="329.08" fill="black" font-size="11.834" font-family="Helvetica">13600</text>
<text xml:space="preserve" x="450.133" y="329.08" fill="black" font-size="11.834" font-family="Times">&#8722;</text>
<text xml:space="preserve" x="413.207" y="341.026" fill="black" font-size="11.834" font-family="Helvetica">Q Value (keV/c^2)</text>
<path d="M57.1929,317.676v -282.379" fill="none" stroke="black"/>
<path d="M70.7992,317.676h -13.6063" fill="none" stroke="black"/>
<path d="M63.9961,307.789h -6.80315" fill="none" stroke="black"/>
<path d="M63.9961,297.901h -6.80315" fill="none" stroke="black"/>
<path d="M63.9961,288.014h -6.80315" fill="none" stroke="black"/>
<path d="M63.9961,278.127h -6.80315" fill="none" stroke="black"/>
<path d="M70.7992,268.24h -13.6063" fill="none" stroke="black"/>
<path d="M63.9961,258.353h -6.80315" fill="none" stroke="black"/>
<path d="M63.9961,248.465h -6.80315" fill="none" stroke="black"/>
<path d="M63.9961,238.578h -6.80315" fill="none" stroke="black"/>
<path d="M63.9961,228.691h -6.80315" fill="none" stroke="black"/>
<path d="M70.7992,218.804h -13.6063" fill="none" stroke="black"/>
<path d="M63.9961,208.917h -6.80315" fill="none" stroke="black"/>
<path d="M63.9961,199.029h -6.80315" fill="none" stroke="black"/>
<path d="M63.9961,189.142h -6.80315" fill="none" stroke="black"/>
<path d="M63.9961,179.255h -6.80315" fill="none" stroke="black"/>
<path d="M70.7992,169.368h -13.6063" fill="none" stroke="black"/>
<path d="M63.9961,159.481h -6.80315" fill="none" stroke="black"/>
<path d="M63.9961,149.593h -6.80315" fill="none" stroke="black"/>
<path d="M63.9961,139.706h -6.80315" fill="none" stroke="black"/>
<path d="M63.9961,129.819h -6.80315" fill="none" stroke="black"/>
<path d="M70.7992,119.932h -13.6063" fill="none" stroke="black"/>
<path d="M63.9961,110.045h -6.80315" fill="none" stroke="black"/>
<path d="M63.9961,100.157h -6.80315" fill="none" stroke="black"/>
<path d="M63.9961,90.2702h -6.80315" fill="none" stroke="black"/>
<path d="M63.9961,80.383h -6.80315" fill="none" stroke="black"/>
<path d="M70.7992,70.4958h -13.6063" fill="none" stroke="black"/>
<path d="M70.7992,70.4958h -13.6063" fill="none" stroke="black"/>
<path d="M63.9961,60.6086h -6.80315" fill="none" stroke="black"/>
<path d="M63.9961,50.7214h -6.80315" fill="none" stroke="black"/>
<path d="M63.9961,40.8341h -6.80315" fill="none" stroke="black"/>
<text xml:space="preserve" x="47.2011" y="321.477" fill="black" font-size="11.834" font-family="Helvetica">0</text>
<text xml:space="preserve" x="40.6846" y="271.518" fill="black" font-size="11.834" font-family="Helvetica">50</text>
<text xml:space="preserve" x="34.1682" y="222.645" fill="black" font-size="11.834" font-family="Helvetica">100</text>
<text xml:space="preserve" x="34.1682" y="172.685" fill="black" font-size="11.834" font-family="Helvetica">150</text>
<text xml:space="preserve" x="34.1682" y="123.812" fill="black" font-size="11.834" font-family="Helvetica">200</text>
<text xml:space="preserve" x="34.1682" y="73.8528" fill="black" font-size="11.834" font-family="Helvetica">250</text>
<g transform="rotate(-90,20.0493,91.23)">
<text xml:space="preserve" x="20.0493" y="91.23" fill="black" font-size="11.834" font-family="Helvetica">Frequency</text>
</g>
<rect x="442.705" y="22.9433" width="113.386" height="56.4757" fill="white"/>
<path d="M442.705,79.419h 113.386" fill="none" stroke="black"/>
<path d="M556.091,79.419v -56.4757" fill="none" stroke="black"/>
<path d="M556.091,22.9433h -113.386" fill="none" stroke="black"/>
<path d="M442.705,22.9433v 56.4757" fill="none" stroke="black"/>
<text xml:space="preserve" x="483.802" y="34.7543" fill="black" font-size="12.4169" font-family="Helvetica">QHist</text>
<path d="M442.705,37.0622h 113.386" fill="none" stroke="black"/>
<text xml:space="preserve" x="447.961" y="47.7871" fill="black" font-size="10.7942" font-family="Helvetica">Entries </text>
<text xml:space="preserve" x="516.384" y="47.7871" fill="black" font-size="10.7942" font-family="Helvetica"> 71613</text>
<text xml:space="preserve" x="447.961" y="61.9061" fill="black" font-size="10.7942" font-family="Helvetica">Mean  </text>
<text xml:space="preserve" x="497.921" y="61.9061" fill="black" font-size="10.7942" font-family="Helvetica">1.441e+04</text>
<text xml:space="preserve" x="491.404" y="61.9061" fill="black" font-size="10.7942" font-family="Times">&#8722;</text>
<text xml:space="preserve" x="488.146" y="61.9061" fill="black" font-size="10.7942" font-family="Helvetica"> </text>
<text xml:space="preserve" x="447.961" y="76.025" fill="black" font-size="10.7942" font-family="Helvetica">Std Dev   </text>
<text xml:space="preserve" x="516.384" y="76.025" fill="black" font-size="10.7942" font-family="Helvetica">  224.9</text>
<text xml:space="preserve" x="256.813" y="17.3771" fill="black" font-size="15.639" font-family="Helvetica">Q Value</text></svg>
